<?xml version="1.0" encoding="utf-8"?><svg xmlns:xlink="http://www.w3.org/1999/xlink" id="Scene_1" image-rendering="auto" baseProfile="basic" version="1.1" x="0px" y="0px" width="80" height="80" overflow="visible" xmlns="http://www.w3.org/2000/svg"><g><path fill="#D8E4B8" d="M71,24.1Q71,22.55 69.4,21.9L41.55,5.85Q40.3,5.05 39.35,5.85L10.95,22.15Q9.8,22.7 9.8,24L9.8,56.5Q9.85,58.3 11.2,58.7L39,74.75Q40.4,75.85 41.95,74.75L69.35,58.9Q71.05,58.35 71,56.4L71,24.1"/><path fill="#FEFEFC" d="M61.6,23.2Q62,22.8 61.6,22.4L42.7,11.65 42.7,16.45 53,22.45Q53.4,22.8 53,23.1L42.65,28.95 42.65,33.6Q43.05,33.85 43.5,33.6L61.6,23.2"/><path fill="#FEFEFC" d="M38.15,16.45L38.15,11.65 19.25,22.4Q18.85,22.8 19.25,23.2L37.4,33.6Q37.85,33.85 38.25,33.6L38.25,28.95 27.85,23.1Q27.45,22.8 27.85,22.45L38.15,16.45"/></g><defs/></svg>