<?xml version="1.0" encoding="utf-8"?>
<!-- Generator: Adobe Illustrator 18.0.0, SVG Export Plug-In . SVG Version: 6.00 Build 0)  -->
<!DOCTYPE svg PUBLIC "-//W3C//DTD SVG 1.1//EN" "http://www.w3.org/Graphics/SVG/1.1/DTD/svg11.dtd">
<svg version="1.1" id="Layer_1" xmlns="http://www.w3.org/2000/svg" xmlns:xlink="http://www.w3.org/1999/xlink" x="0px" y="0px"
	 viewBox="0 0 300 80" style="enable-background:new 0 0 300 80;" xml:space="preserve">
<g>
	<g>
		<g>
			<g>
				<polygon style="fill:#D8E4B8;" points="18.5,16.2 28.7,16.2 28.7,53.7 47.8,53.7 47.8,63.1 18.5,63.1 				"/>
				<g>
					<path style="fill:#D8E4B8;" d="M52.3,31.3h9.9v31.8h-9.9V31.3z M57.3,15.5c3.2,0,5.7,2.6,5.7,5.7c0,3.2-2.6,5.7-5.7,5.7
						c-3.2,0-5.7-2.6-5.7-5.7C51.5,18.1,54.1,15.5,57.3,15.5"/>
				</g>
				<polygon style="fill:#D8E4B8;" points="103.5,16.2 113.4,16.2 113.4,44.3 124.6,31.3 136.7,31.3 123.7,46 136.4,63.1 124,63.1 
					113.5,47.4 113.4,47.4 113.4,63.1 103.5,63.1 				"/>
				<path style="fill:#D8E4B8;" d="M67.7,31.3h9.5v4.3h0.1c1.3-2.5,4.5-5.1,9.4-5.1c10,0,11.9,6.6,11.9,15.2v17.4h-9.9V47.7
					c0-3.7-0.1-8.4-5.1-8.4c-5.1,0-5.9,4-5.9,8.2v15.7h-9.9V31.3z"/>
				<path style="fill:#D8E4B8;" d="M157.5,43.5c0.1-3.3-2.5-6.1-6.1-6.1c-4.3,0-6.7,3-7,6.1H157.5z M165.9,57.6
					c-3.2,4-8.4,6.3-13.5,6.3c-9.9,0-17.8-6.6-17.8-16.8c0-10.2,7.9-16.8,17.8-16.8c9.2,0,15,6.6,15,16.8v3.1h-22.9
					c0.8,3.8,3.6,6.2,7.4,6.2c3.2,0,5.4-1.6,7.1-3.9L165.9,57.6z"/>
				<path style="fill:#D8E4B8;" d="M188,39c-4.9,0-7.9,3.3-7.9,8.1c0,4.8,3,8.1,7.9,8.1c4.9,0,7.9-3.3,7.9-8.1
					C195.9,42.3,192.9,39,188,39 M205,63.1h-9.1v-4.2h-0.1c-1.5,2.3-5.3,5-9.8,5c-9.5,0-15.8-6.8-15.8-16.5
					c0-8.9,5.5-17.1,14.6-17.1c4.1,0,7.9,1.1,10.1,4.2h0.1V16.2h9.9V63.1z"/>
			</g>
			<path style="fill:#D8E4B8;" d="M276.6,6.3h-56.8c-2.7,0-4.9,2.2-4.9,4.8v57.1c0,2.7,2.2,4.8,4.9,4.8h56.8c2.7,0,4.9-2.2,4.9-4.8
				V11.1C281.5,8.5,279.3,6.3,276.6,6.3z M234.7,63.1h-9.9V31.3h9.9V63.1z M229.7,27c-3.2,0-5.7-2.6-5.7-5.7c0-3.2,2.6-5.7,5.7-5.7
				c3.2,0,5.7,2.6,5.7,5.7C235.4,24.4,232.9,27,229.7,27z M271.7,63.1h-9.9V47.7c0-3.7-0.1-8.4-5.1-8.4c-5.1,0-5.9,4-5.9,8.2v15.7
				h-9.9V31.3h9.5v4.3h0.1c1.3-2.5,4.5-5.1,9.4-5.1c10,0,11.9,6.6,11.9,15.2V63.1z"/>
		</g>
	</g>
</g>
</svg>
