<?xml version="1.0" encoding="utf-8"?><svg xmlns:xlink="http://www.w3.org/1999/xlink" id="Scene_1" image-rendering="auto" baseProfile="basic" version="1.1" x="0px" y="0px" width="80" height="80" overflow="visible" xmlns="http://www.w3.org/2000/svg"><g><path fill="#D8E4B8" d="M56,36.55Q55.75,36.4 55.4,36.55L50.25,39.5Q49.9,39.7 49.9,40.1L49.9,46Q49.9,46.45 50.25,46.6L55.4,49.5Q55.7,49.65 55.95,49.5L59.1,47.75Q59.25,47.65 59.25,47.5 59.25,47.3 59.1,47.25L53.9,44.25Q53.75,44.15 53.75,44L53.75,42.1Q53.75,41.95 53.9,41.85L55.55,40.9Q55.65,40.8 55.85,40.9L57.45,41.85Q57.6,41.95 57.6,42.1L57.6,43.6Q57.6,43.75 57.75,43.85 57.9,43.9 58.05,43.85L61.15,42.05Q61.45,41.9 61.45,41.55L61.45,40.1Q61.45,39.7 61.15,39.5L56,36.55"/><path fill="#D8E4B8" d="M45.75,30.7L42.65,28.95Q42.5,28.85 42.35,28.95 42.2,29.05 42.2,29.25L42.2,37.2Q42.2,37.3 42.1,37.35 42,37.45 41.9,37.35L40.55,36.65Q40.25,36.45 39.9,36.65L34.75,39.6Q34.45,39.8 34.45,40.15L34.45,46.1Q34.45,46.5 34.75,46.7L39.9,49.65Q40.25,49.85 40.55,49.65L45.75,46.7Q46.05,46.5 46.05,46.1L46.05,31.2Q46.05,30.85 45.75,30.7 M42.2,42.1L42.2,44.15Q42.2,44.2 42.1,44.3L40.35,45.3Q40.25,45.35 40.2,45.3L38.35,44.3Q38.3,44.2 38.3,44.15L38.3,42.1Q38.3,42 38.35,42L40.2,40.95Q40.25,40.9 40.35,40.95L42.1,42Q42.2,42 42.2,42.1"/><path fill="#D8E4B8" d="M56.75,42.45Q56.75,42.4 56.7,42.35L55.75,41.8Q55.7,41.75 55.65,41.8L54.65,42.35Q54.55,42.4 54.55,42.45L54.55,43.6Q54.55,43.7 54.65,43.7L55.65,44.25Q55.7,44.35 55.75,44.25L56.7,43.7Q56.75,43.7 56.75,43.6L56.75,42.45"/><path fill="#D8E4B8" d="M71.7,36.45Q71.5,36.35 71.2,36.35 70.9,36.35 70.7,36.45L65.8,39.25Q65.3,39.55 65.3,40.15L65.3,45.75Q65.3,46.4 65.8,46.7L67.1,47.4Q67.7,47.7 68.2,47.7 68.9,47.7 69.3,47.3 69.65,46.9 69.65,46.15L69.65,40.6Q69.65,40.5 69.55,40.5L68.9,40.5Q68.8,40.5 68.8,40.6L68.8,46.15Q68.8,46.6 68.45,46.75 68.05,46.95 67.6,46.7L66.25,45.9Q66.15,45.8 66.15,45.75L66.15,40.15Q66.15,40.1 66.25,40.05L71.15,37.2Q71.2,37.15 71.25,37.2L76.15,40Q76.2,40.1 76.2,40.15L76.2,45.75Q76.2,45.9 76.15,45.9L71.25,48.75Q71.2,48.8 71.15,48.75L69.85,47.95Q69.8,47.95 69.75,47.95 69.4,48.2 69,48.3 68.85,48.4 69.05,48.55L70.7,49.45Q71,49.6 71.2,49.6 71.45,49.6 71.7,49.45L76.6,46.7Q77.1,46.4 77.1,45.75L77.1,40.15Q77.1,39.55 76.6,39.25L71.7,36.45"/><path fill="#D8E4B8" d="M70.3,43.8Q70.1,43.8 70.1,43.95 70.1,45.75 72.7,45.75 73.9,45.75 74.5,45.3 75.15,44.9 75.15,44.05 75.15,43.35 74.6,42.95 74.15,42.7 72.95,42.5 71.8,42.4 71.55,42.25 71.25,42.15 71.25,41.9 71.25,41.15 72.5,41.15 73.25,41.15 73.6,41.4 73.95,41.6 74.05,42.1 74.1,42.2 74.2,42.2L74.8,42.2 74.9,42.15Q74.95,42.1 74.95,42.05 74.8,40.35 72.5,40.35 71.45,40.35 70.9,40.75 70.3,41.15 70.3,41.9 70.3,42.65 70.9,43.05 71.35,43.3 72.45,43.4 73.6,43.5 73.9,43.7 74.2,43.85 74.2,44.1 74.2,44.9 72.7,44.9 71.75,44.9 71.4,44.7 71.1,44.45 71.05,43.9 71,43.8 70.9,43.8L70.3,43.8"/><path fill="#D8E4B8" d="M9.25,36.4L9.2,36.4Q9.1,36.4 8.95,36.5L3.75,39.45Q3.45,39.6 3.45,40L3.5,47.95Q3.5,48.2 3.6,48.3 3.8,48.4 3.9,48.3L7,46.55Q7.3,46.3 7.3,45.95L7.3,42.2Q7.3,41.85 7.6,41.7L8.95,40.9Q9.1,40.8 9.25,40.8 9.35,40.8 9.55,40.9L10.85,41.7Q11.15,41.85 11.15,42.2L11.15,45.95Q11.15,46.3 11.45,46.55L14.55,48.3Q14.7,48.4 14.85,48.3 15.05,48.2 15.05,47.95L15.05,40Q15.05,39.6 14.7,39.45L9.55,36.5Q9.4,36.4 9.25,36.4"/><path fill="#D8E4B8" d="M19.25,39.45Q18.95,39.7 18.95,40.05L18.95,46Q18.95,46.4 19.25,46.6L24.45,49.55Q24.75,49.75 25.1,49.55L30.25,46.6Q30.55,46.4 30.55,46L30.55,40.05Q30.55,39.7 30.25,39.45L25.1,36.5Q24.75,36.35 24.45,36.5L19.25,39.45"/></g><defs/></svg>