<?xml version="1.0" encoding="utf-8"?>
<!DOCTYPE svg PUBLIC "-//W3C//DTD SVG 1.1//EN" "http://www.w3.org/Graphics/SVG/1.1/DTD/svg11.dtd">
<svg version="1.1" id="Layer_1" xmlns="http://www.w3.org/2000/svg" xmlns:xlink="http://www.w3.org/1999/xlink" x="0px" y="0px"
	 viewBox="0 0 300 80" enable-background="new 0 0 300 80" xml:space="preserve">
<path class="twittersvg" fill="#D8E4B8" d="M80.7,19.5c-2.5,1.1-5.2,1.9-8,2.2c2.9-1.7,5.1-4.5,6.1-7.7c-2.7,1.6-5.7,2.8-8.8,3.4
	c-2.5-2.7-6.2-4.4-10.2-4.4c-7.7,0-13.9,6.2-13.9,13.9c0,1.1,0.1,2.2,0.4,3.2C34.7,29.5,24.5,24,17.6,15.5c-1.2,2.1-1.9,4.5-1.9,7
	c0,4.8,2.5,9.1,6.2,11.6c-2.3-0.1-4.4-0.7-6.3-1.7c0,0.1,0,0.1,0,0.2c0,6.8,4.8,12.4,11.2,13.7c-1.2,0.3-2.4,0.5-3.7,0.5
	c-0.9,0-1.8-0.1-2.6-0.2c1.8,5.5,6.9,9.6,13,9.7c-4.8,3.7-10.8,6-17.3,6c-1.1,0-2.2-0.1-3.3-0.2c6.2,4,13.5,6.3,21.4,6.3
	c25.6,0,39.6-21.2,39.6-39.6c0-0.6,0-1.2,0-1.8C76.4,24.7,78.8,22.3,80.7,19.5z"/>
<text transform="matrix(1 0 0 1 89.3667 54.2764)" fill="#D8E4B8" font-family="'Simplifica'" font-size="38.952" letter-spacing="3">@DUSTINMALIK</text>
</svg>
