<?xml version="1.0" encoding="utf-8"?><svg xmlns:xlink="http://www.w3.org/1999/xlink" id="Scene_1" image-rendering="auto" baseProfile="basic" version="1.1" x="0px" y="0px" width="80" height="80" overflow="visible" xmlns="http://www.w3.org/2000/svg"><g><path fill="#D8E4B8" d="M68.9,16.8L68.9,17.95Q70.65,17.65 71.9,17.65 73.85,17.65 73.85,18.5L73.85,20.4Q73.85,20.75 73.65,21 73.45,21.2 73.1,21.3 72.75,21.4 72.5,21.4 72.2,21.45 71.8,21.45L70.05,21.45 70.05,22.45 72.1,22.45Q72.5,22.45 72.75,22.45 73.05,22.5 73.4,22.6 73.75,22.65 73.95,22.9 74.1,23.1 74.1,23.45L74.1,25.25Q74.1,26.5 71.95,26.5 70.7,26.5 68.7,26.1L68.7,27.25Q70.45,27.55 71.8,27.55 72.4,27.55 72.85,27.55 73.3,27.5 73.85,27.35 74.45,27.2 74.8,27 75.15,26.75 75.4,26.3 75.65,25.9 75.65,25.3L75.65,23.2Q75.65,22.8 75.5,22.55 75.35,22.3 75.05,22.15 74.8,22 74.55,21.95 74.25,21.85 73.9,21.8L73.9,21.7Q74.5,21.65 74.9,21.3 75.35,21 75.35,20.45L75.35,18.4Q75.35,17.4 74.5,17.05 73.65,16.65 71.9,16.65 70.3,16.65 68.9,16.8"/><path fill="#D8E4B8" d="M12.35,23.2L11.65,23.2Q10.85,23.2 10.45,23.25 10.1,23.25 9.45,23.35 8.8,23.45 8.45,23.65 8.1,23.85 7.65,24.25 7.2,24.7 7,25.25 6.75,25.85 6.6,26.75 6.45,27.6 6.45,28.8L6.45,35.35Q6.45,37.4 6.1,37.9 5.75,38.35 4.15,38.35L4.15,40.25Q5.75,40.25 6.1,40.7 6.45,41.15 6.45,43.25L6.45,51.7Q6.45,52.85 6.6,53.75 6.75,54.65 7,55.25 7.2,55.8 7.65,56.25 8.1,56.65 8.45,56.85 8.8,57.05 9.45,57.15 10.1,57.25 10.45,57.3 10.85,57.3 11.65,57.3L12.35,57.3 12.35,55.55 11.95,55.55Q11.05,55.55 10.4,54.9 9.7,54.25 9.7,53.15L9.7,44.5Q9.7,42.25 9.1,41.1 8.5,39.9 6.8,39.35L6.8,39.25Q8.5,38.65 9.1,37.45 9.7,36.3 9.7,34.05L9.7,27.35Q9.7,26.25 10.4,25.6 11.05,24.95 11.95,24.95L12.35,24.95 12.35,23.2"/><path fill="#D8E4B8" d="M28.1,26.4L24,26.4 14.5,50.3 18.05,50.3 20.75,43.05 30.95,43.05 33.7,50.3 37.4,50.3 28.1,26.4 M21.65,40.55L25.7,29.8 26.05,29.8 30.1,40.55 21.65,40.55"/><path fill="#D8E4B8" d="M55.75,29.1L55.75,26.45Q52.15,26.05 49.6,26.05 44.2,26.05 42.2,27.4 40.2,28.75 40.2,31.6L40.2,33.5Q40.2,36.35 41.65,37.8 43.05,39.25 46.65,39.25L49.45,39.25Q51.7,39.25 52.55,39.9 53.4,40.55 53.4,42.05L53.4,45.15Q53.4,46.9 52.1,47.45 50.75,48 48.2,48 45.05,48 40.7,47.1L40.7,50.1Q45.05,50.65 48,50.65 52.6,50.65 54.75,49.2 56.95,47.75 56.95,43.95L56.95,42.2Q56.95,39.3 55.6,37.95 54.25,36.6 50.55,36.6L47.7,36.6Q45.45,36.6 44.55,36.05 43.65,35.45 43.65,34.2L43.65,31.5Q43.65,29.85 44.8,29.2 45.9,28.5 49.35,28.5 51.65,28.5 55.75,29.1"/><path fill="#D8E4B8" d="M62.4,23.25Q62,23.2 61.2,23.2L60.5,23.2 60.5,24.95 60.9,24.95Q61.8,24.95 62.5,25.6 63.15,26.25 63.15,27.35L63.15,34.05Q63.15,36.3 63.75,37.45 64.35,38.65 66.05,39.25L66.05,39.35Q64.35,39.9 63.75,41.1 63.15,42.25 63.15,44.5L63.15,53.15Q63.15,54.25 62.5,54.9 61.8,55.55 60.9,55.55L60.5,55.55 60.5,57.3 61.2,57.3Q62,57.3 62.4,57.3 62.75,57.25 63.4,57.15 64.05,57.05 64.4,56.85 64.75,56.65 65.2,56.25 65.65,55.8 65.85,55.25 66.05,54.65 66.25,53.75 66.4,52.85 66.4,51.7L66.4,43.25Q66.4,41.15 66.75,40.7 67.1,40.25 68.7,40.25L68.7,38.35Q67.1,38.35 66.75,37.9 66.4,37.4 66.4,35.35L66.4,28.8Q66.4,27.6 66.25,26.75 66.05,25.85 65.85,25.25 65.65,24.7 65.2,24.25 64.75,23.85 64.4,23.65 64.05,23.45 63.4,23.35 62.75,23.25 62.4,23.25"/></g><defs/></svg>