<?xml version="1.0" encoding="utf-8"?><svg xmlns:xlink="http://www.w3.org/1999/xlink" id="Scene_1" image-rendering="auto" baseProfile="basic" version="1.1" x="0px" y="0px" width="80" height="80" overflow="visible" xmlns="http://www.w3.org/2000/svg"><g><path fill="#D8E4B8" d="M70.3,70.3L70.3,9.2 9.2,9.2 9.2,70.3 70.3,70.3"/><path fill="#FEFEFC" d="M54.55,22.9L49.45,23 49.45,51.15Q49.45,53.95 50.15,55.15 50.9,56.45 52.75,56.45 53.8,56.45 54.8,56.5 55.45,56.45 56.75,56.15 56.55,56.1 56.65,54.9 56.7,53.65 56.6,53.55 55.55,53 55.2,52.65 54.65,52.05 54.55,51 54.55,50.9 54.55,48.7L54.55,22.9"/><path fill="#FEFEFC" d="M40.9,40.95L40.9,36 29.3,36 29.3,28.3 45.15,28.3 45.15,23.1 23.45,23.1 23.45,56 29.3,56 29.3,40.95 40.9,40.95"/></g><defs/></svg>