<?xml version="1.0" encoding="utf-8"?><svg xmlns:xlink="http://www.w3.org/1999/xlink" id="Scene_1" image-rendering="auto" baseProfile="basic" version="1.1" x="0px" y="0px" width="80" height="80" overflow="visible" xmlns="http://www.w3.org/2000/svg"><g><path fill="#D8E4B8" stroke="#D8E4B8" stroke-linecap="round" stroke-linejoin="round" d="M14.25,68.95L40.2,75.95 65.9,68.95 71.8,4.6 8.7,4.6 14.25,68.95"/><path fill="#D8E4B8" stroke="#D8E4B8" stroke-linecap="round" stroke-linejoin="round" d="M13.6,10.2L18.3,64.5 40.2,70.4 61.9,64.5 66.85,10.2 40.2,10.2 13.6,10.2"/><path fill="#D8E4B8" d="M40.2,17L40.2,10.2 13.6,10.2 18.3,64.5 40.2,70.4 40.2,62.7 23.7,58.1 22.45,45.6 30.5,45.6 31.5,51.7 40.2,54.2 40.2,25.2 20.9,25.2 19.9,17 40.2,17"/><path fill="none" stroke="#D8E4B8" stroke-linecap="round" stroke-linejoin="round" d="M40.2,10.2L13.6,10.2 18.3,64.5 40.2,70.4"/><path fill="#EEF3E0" d="M40.2,10.2L40.2,17 60.1,17 56.7,57.95 40.2,62.7 40.2,70.4 61.9,64.5 66.85,10.2 40.2,10.2"/><path fill="none" stroke="#D8E4B8" stroke-linecap="round" stroke-linejoin="round" d="M40.2,70.4L61.9,64.5 66.85,10.2 40.2,10.2"/><path fill="#E6EDD1" d="M20.9,25.2L40.2,25.2 40.2,17 19.9,17 20.9,25.2"/><path fill="#E6EDD1" d="M30.5,45.6L22.45,45.6 23.7,58.1 40.2,62.7 40.2,54.2 31.5,51.7 30.5,45.6"/><path fill="#FEFEFC" d="M40.2,17L40.2,25.2 51.5,25.2 49.4,51.7 40.3,54.2 40.2,54.2 40.2,62.7 56.7,57.95 60.1,17 40.2,17"/><path fill="#EEF3E0" d="M40.2,54.2L40.3,54.2 49.4,51.7 51.5,25.2 40.2,25.2 40.2,54.2"/></g><defs/></svg>