<?xml version="1.0" encoding="utf-8"?><svg xmlns:xlink="http://www.w3.org/1999/xlink" id="Scene_1" image-rendering="auto" baseProfile="basic" version="1.1" x="0px" y="0px" width="80" height="80" overflow="visible" xmlns="http://www.w3.org/2000/svg"><g><path fill="#D8E4B8" d="M51.4,27.8L65.5,42.95Q66.15,43.9 67.1,43.4 67.6,42.7 66.65,41.85L51.4,27.8"/><path fill="#D8E4B8" d="M22.25,55.35L36.35,70.55Q37,71.45 37.95,70.95 38.45,70.25 37.5,69.45L22.25,55.35"/><path fill="#D8E4B8" d="M66.6,52.65Q67.75,54.4 69.5,53.4 70.45,52.15 68.7,50.6L40.85,24.9 66.6,52.65"/><path fill="#D8E4B8" d="M68.05,61.65Q69.5,59.75 66.9,57.4L25.05,18.75 63.65,60.45Q65.4,63.1 68.05,61.65"/><path fill="#D8E4B8" d="M63.95,68.85Q65.4,67.3 63.15,65L8.75,13.65 60.6,68.85Q62.5,70.3 63.95,68.85"/><path fill="#D8E4B8" d="M47.1,73.1Q48.05,71.85 46.3,70.3L18.45,44.55 44.2,72.35Q45.35,74.1 47.1,73.1"/><path fill="#D8E4B8" d="M56.55,73.2Q58,71.35 55.35,69L13.5,30.35 52.15,72.05Q53.9,74.7 56.55,73.2"/></g><defs/></svg>