<?xml version="1.0" encoding="utf-8"?><svg xmlns:xlink="http://www.w3.org/1999/xlink" id="Scene_1" image-rendering="auto" baseProfile="basic" version="1.1" x="0px" y="0px" width="80" height="80" overflow="visible" xmlns="http://www.w3.org/2000/svg"><g><path fill="#FEFEFC" d="M72.25,19.15Q72.3,15.15 70.95,13.5 65.15,6.1 55.75,5.9 52.7,5.85 49.65,6.65 47.45,7.2 46.6,7.7 44.15,7.1 41.5,7.1 36.5,6.95 32.95,9.45 31.4,8.85 29.25,8.3 24.25,7 20.1,7.25 14.15,7.55 10.9,11.1 6.85,15.3 7.3,24.1 7.4,26.55 8.65,32.35 10.2,39.15 12.2,44.45 14.7,51.4 17.4,54 19.3,55.8 21.2,55.55 23.1,55.45 24.85,53.3 26.75,51 28.9,48.65L30.35,47.1Q30.75,47.3 31.1,47.5 32.65,48.15 34.3,48.2 34.3,48.25 34.3,48.3 34,48.7 33.5,49.35 33.05,49.9 32.7,50.1 31.95,50.75 29.4,51.2 27.65,51.6 27,52.1 25.6,53.1 26.4,54.35 26.65,54.95 27.7,55.5 28.4,55.95 29.25,56.1 31.9,56.8 34.2,56.4 36.85,55.95 38.8,54.2 38.75,58.2 38.95,61.7 39.15,67.2 39.75,68.65 40.85,71.3 42.3,72.55 44.8,74.75 49.1,73.8 52.95,72.95 54.8,71.1 56.5,69.3 57.15,65.6 57.55,63.35 58.2,58.05L58.2,58Q58.6,55.15 58.75,53.35L58.8,53.35Q59.9,53.75 61.7,53.7 65.5,53.7 68.05,52.5 71.15,51.05 72.25,49.35 72.6,48.8 72.6,48.35 72.65,47.55 72.05,47.1L72,47.1Q71.45,46.5 69.6,46.9 64.9,47.85 62.8,47.05 62.55,46.95 62.4,46.75 65.25,42.35 67.5,37.3 69.7,32.3 70.95,27.45 72.25,22.7 72.25,19.15"/><path fill="#D8E4B8" d="M70.25,19.1Q70.3,16.05 69.35,14.75 64.15,8.05 55.7,7.95 52.9,7.9 50.15,8.55 49.9,8.6 49.6,8.75 50.75,9.15 51.8,9.85 55.55,11.9 58.4,15.55 60.55,18.3 61.8,21.3 62.25,22.45 62.45,23.25 62.6,23.7 62.6,24 62.6,24.35 62.55,24.65 62.55,25.95 62.25,27.85 61.95,30.2 61.9,31.3 61.9,32.35 62.05,34.2 62.4,36.7 62.45,37.5L62.45,37.55Q62.6,41.6 60.85,44.45 61,44.75 61.15,44.9 63.7,41 65.7,36.55 67.85,31.65 69.05,26.95 70.2,22.5 70.25,19.1"/><path fill="#D8E4B8" d="M59.95,22.05Q58.8,19.3 56.8,16.8 54.25,13.45 50.8,11.55 46.65,9.1 41.5,9.05 36.5,8.95 33.2,11.7 30.5,13.95 29,17.9 27.9,20.85 27.55,24.35 27.5,24.75 27.5,25.15L27.55,25.1Q29.45,24.05 31.5,23.6 34.2,22.95 36.05,23.7 38.5,24.6 39.15,27.6 40.55,33.95 39.55,38.25 39.2,39.65 38.5,41.3L38.5,41.35Q38.1,42.2 37.5,43.65L37.5,43.7Q36.75,45.6 36.55,46.3 36.5,46.5 36.45,46.65 36.65,46.6 36.9,46.6 37.5,46.5 38.5,46.9 40,47.5 40.6,49.25 40.8,49.8 40.85,50.3L40.85,50.35Q40.85,50.45 40.85,50.5 40.85,50.75 40.85,50.95L40.85,51Q40.7,56.8 40.9,61.55 41.15,66.6 41.65,67.95 42.45,70.05 43.6,71 45.5,72.55 48.65,71.85 51.85,71.15 53.3,69.7L53.35,69.7Q54.65,68.25 55.15,65.25 55.55,63 56.2,57.75 56.8,53 56.95,51.45 56.75,47.75 59.15,46.8 59.45,46.65 59.9,46.55 59.65,46.15 59.2,45.55 57.85,43.9 57.2,42.35 56,40.2 55,38.25 52.9,34.25 52.2,31.4 50.95,26.35 53.55,24.35 55.55,22.55 60.35,23.05 60.2,22.6 59.95,22.05"/><path fill="#D8E4B8" d="M60.3,27.55Q60.5,26.2 60.55,25.1 56.55,24.6 54.85,25.9 53.25,27.35 54.2,30.95 54.85,33.55 56.75,37.35 57.8,39.3 58.95,41.45L59,41.55Q59.25,42.1 59.55,42.65 60.55,40.45 60.4,37.7L60.4,37.65Q60.35,36.8 60.05,34.5 59.85,32.4 59.9,31.25 59.9,30.05 60.3,27.55"/><path fill="#FFF" d="M55.9,27.65Q56.5,28.05 57.1,28 57.75,27.9 58.25,27.35 58.75,26.8 58.7,26.45 58.65,26.1 58.05,25.95 57.55,25.85 56.9,25.95 56.2,26 55.75,26.3 55.2,26.6 55.35,26.95 55.35,27.3 55.9,27.65"/><path fill="#D8E4B8" d="M61.05,48.3L60.95,48.3Q60.35,48.45 59.95,48.65 58.8,49.3 58.95,51.35 58.997,51.397 59.35,51.45 60.25,51.7 61.7,51.7 64.95,51.65 67.15,50.65 69.1,49.8 70.1,48.85 70.05,48.85 70,48.85 64.55,49.95 62.05,48.85 61.45,48.65 61.05,48.3"/><path fill="#D8E4B8" d="M31.1,10.95Q30,10.55 28.75,10.2L28.7,10.2Q24.05,9.05 20.2,9.2 15.15,9.55 12.35,12.45 8.85,16.2 9.25,24 9.35,26.35 10.65,31.9 12.1,38.55 14.05,43.75 16.35,50.1 18.8,52.5 19.95,53.65 21.05,53.6 22.2,53.45 23.3,52.05 25.3,49.75 27.4,47.3L28.7,45.95Q28.2,45.5 27.7,45 26.25,43.35 25.6,41.2 24.9,38.95 25.2,36.6 25.6,33.85 25.55,30.7 25.4,27.9 25.4,27.35L25.4,27.3Q25.35,27.1 25.4,27 25.4,25.8 25.55,24.15 25.95,20.35 27.15,17.2 28.65,13.35 31.1,10.95"/><path fill="#D8E4B8" d="M35.35,25.5Q34,25 31.95,25.5 30.2,25.9 28.55,26.85 27.6,27.4 27.35,27.3L27.35,27.35Q27.35,27.85 27.55,30.65 27.6,33.95 27.2,36.85 26.95,38.8 27.5,40.6 28.05,42.35 29.2,43.7 30.35,45 31.95,45.65 33.2,46.15 34.55,46.15 34.6,46 34.65,45.85 34.85,45.05 35.65,42.9 36.3,41.45 36.65,40.55 37.3,39.05 37.55,37.8 38.45,33.85 37.2,28.05 36.8,26.1 35.35,25.5"/><path fill="#FFF" d="M35.65,28.5Q36.25,28.05 36.3,27.6 36.4,27.15 35.75,26.8 35.25,26.55 34.6,26.45 33.85,26.35 33.3,26.45 32.6,26.65 32.6,27.1 32.5,27.5 33.05,28.1 33.65,28.7 34.3,28.8 34.95,28.95 35.65,28.5"/><path fill="#D8E4B8" d="M37.75,48.75Q37.35,48.6 37.05,48.6 36.65,48.65 36.25,49.15 35.85,49.55 35,50.55 34.4,51.35 34,51.7 33,52.55 29.8,53.2 28.85,53.35 28.35,53.65 28.45,53.7 28.65,53.75 29.15,54.05 29.75,54.2L29.7,54.2Q31.95,54.75 33.85,54.4 36.8,53.9 38.65,51.35 38.8,51.1 38.9,50.85 38.9,50.65 38.9,50.5 38.8,50.25 38.7,49.9 38.45,49 37.7,48.75L37.75,48.75"/></g><defs/></svg>