<?xml version="1.0" encoding="utf-8"?><svg xmlns:xlink="http://www.w3.org/1999/xlink" id="Scene_1" image-rendering="auto" baseProfile="basic" version="1.1" x="0px" y="0px" width="80" height="80" overflow="visible" xmlns="http://www.w3.org/2000/svg"><g><path fill="none" stroke="#D8E4B8" stroke-width="0.2" stroke-linecap="round" stroke-linejoin="round" d="M-104.65,-33.5L-104.05,-33.5 -104.65,-33.5"/><path fill="#D8E4B8" d="M70.7,33.65L56.9,11.45 23.6,11.45 9.75,34.2 15.6,69.55 25.55,69.55 24.65,61.2 29.55,61.2 30.15,69.5 49.25,69.5Q49.9,69.5 50.6,69.5L51.15,61.1 56.1,61.1 55.4,69.55 65.25,69.55 70.7,33.65"/><path fill="#FEFEFC" d="M54.2,22.7L45.1,22.7 45.95,26.65 34.7,26.65 35.25,22.65 26.65,22.65 21.15,33.85 23.8,55.55 57,55.55 59.7,33.8 54.2,22.7"/><path fill="#D8E4B8" d="M49.4,38.75Q48.8,38.75 48.4,40.2 48,41.7 48,43.75 48,45.8 48.4,47.25 48.8,48.75 49.4,48.75 50,48.75 50.4,47.25 50.8,45.8 50.8,43.75 50.8,41.7 50.4,40.2 50,38.75 49.4,38.75"/><path fill="#D8E4B8" d="M33.35,43.75Q33.35,41.7 32.95,40.2 32.55,38.75 31.95,38.75 31.35,38.75 30.95,40.2 30.55,41.7 30.55,43.75 30.55,45.8 30.95,47.25 31.35,48.75 31.95,48.75 32.55,48.75 32.95,47.25 33.35,45.8 33.35,43.75"/><path fill="#FEFEFC" d="M30.15,69.5L29.55,61.2 24.65,61.2 25.55,69.55 30.15,69.5"/><path fill="#FEFEFC" d="M55.4,69.55L56.1,61.1 51.15,61.1 50.6,69.5 55.4,69.55"/></g><defs/></svg>