<?xml version="1.0" encoding="utf-8"?><svg xmlns:xlink="http://www.w3.org/1999/xlink" id="Scene_1" image-rendering="auto" baseProfile="basic" version="1.1" x="0px" y="0px" width="800" height="400" overflow="visible" xmlns="http://www.w3.org/2000/svg"><g><g transform="matrix(0.943 0 0 0.943 529.65 17.45)"><path fill="#D55B43" d="M133.65,23.35Q133.65,21.05 132.8,19.05 131.9,17 130.45,15.55 128.95,14.05 127,13.2 125,12.3 122.7,12.3 120.45,12.3 118.4,13.2 116.4,14.05 114.95,15.55 113.45,17 112.6,19.05 111.7,21.05 111.7,23.35L114.2,23.35Q114.2,21.6 114.9,20.05 115.6,18.45 116.7,17.35 117.85,16.2 119.4,15.5 121,14.85 122.7,14.85 124.45,14.85 126,15.5 127.5,16.2 128.65,17.35 129.75,18.45 130.5,20.05 131.15,21.6 131.15,23.35 131.15,25.7 130.7,27.5 130.2,29.25 129.35,30.75 128.4,32.25 127.1,33.55 125.75,34.85 124,36.15 122.15,37.7 121.15,39.05 120.15,40.35 119.75,41.95 119.4,43.55 119.35,45.65 119.3,47.85 119.3,50.85L121.85,50.85Q121.85,48.25 121.75,46.5 121.7,44.7 121.9,43.35 122.15,41.95 123,40.75 123.8,39.6 125.6,38.2 127.45,36.75 128.9,35.3 130.4,33.85 131.5,32.15 132.5,30.4 133.1,28.3 133.65,26.15 133.65,23.35"/><path fill="#D55B43" d="M101,24.05Q101,21.75 100.1,19.75 99.25,17.8 97.75,16.3 96.3,14.85 94.3,14 92.3,13.15 90,13.15L80.7,13.15 80.7,64.5 83.2,64.5 83.2,42.9 89.45,42.9 98.6,64.5 101.35,64.5 92.1,42.65Q94,42.3 95.6,41.35 97.2,40.4 98.4,38.95 99.65,37.5 100.35,35.75 101,34 101,32L101,24.05 M90,15.7Q91.7,15.7 93.25,16.35 94.75,17.05 95.9,18.2 97.05,19.35 97.75,20.85 98.4,22.35 98.4,24.05L98.4,32Q98.4,33.75 97.75,35.3 97.05,36.8 95.9,37.95 94.75,39.05 93.25,39.75 91.7,40.35 90,40.35L83.2,40.35 83.2,15.7 90,15.7"/><path fill="#D55B43" d="M120.7,59.4Q119.6,59.4 118.8,60.25 117.95,61.05 117.95,62.15 117.95,63.3 118.8,64.1 119.6,64.95 120.7,64.95 121.85,64.95 122.65,64.1 123.5,63.3 123.5,62.15 123.5,61.05 122.65,60.25 121.85,59.4 120.7,59.4"/><path fill="#D55B43" d="M67.15,16.05Q65.65,14.6 63.7,13.7 61.7,12.85 59.4,12.85 57.15,12.85 55.1,13.7 53.1,14.6 51.65,16.05 50.15,17.55 49.3,19.55 48.4,21.6 48.4,23.85L48.4,53.85Q48.4,56.15 49.3,58.2 50.15,60.2 51.65,61.65 53.1,63.15 55.1,64 57.15,64.9 59.4,64.9 61.7,64.9 63.7,64 65.65,63.15 67.15,61.65 68.6,60.2 69.5,58.2 70.35,56.15 70.35,53.85L70.35,23.85Q70.35,21.6 69.5,19.55 68.6,17.55 67.15,16.05 M65.35,17.95Q66.45,19.05 67.2,20.6 67.85,22.1 67.85,23.85L67.85,53.85Q67.85,55.6 67.2,57.2 66.45,58.75 65.35,59.85 64.2,61 62.7,61.7 61.15,62.35 59.4,62.35 57.7,62.35 56.1,61.7 54.55,61 53.4,59.85 52.3,58.75 51.6,57.2 50.9,55.6 50.9,53.85L50.9,23.85Q50.9,22.1 51.6,20.6 52.3,19.05 53.4,17.95 54.55,16.8 56.1,16.1 57.7,15.45 59.4,15.45 61.15,15.45 62.7,16.1 64.2,16.8 65.35,17.95"/><path fill="#D55B43" d="M22.1,15.75L39.6,15.75 39.6,13.15 19.6,13.15 19.6,64.5 22.1,64.5 22.1,37.6 36.5,37.6 36.5,35.1 22.1,35.1 22.1,15.75"/><path fill="#D55B43" d="M-10.75,16.05Q-12.25,14.6 -14.2,13.7 -16.2,12.85 -18.5,12.85 -20.75,12.85 -22.8,13.7 -24.8,14.6 -26.25,16.05 -27.75,17.55 -28.6,19.55 -29.5,21.6 -29.5,23.85L-29.5,53.85Q-29.5,56.15 -28.6,58.2 -27.75,60.2 -26.25,61.65 -24.8,63.15 -22.8,64 -20.75,64.9 -18.5,64.9 -16.35,64.9 -14.4,64.1 -12.45,63.3 -11,61.95 -9.5,60.55 -8.6,58.7 -7.7,56.85 -7.55,54.75L-7.55,35.6 -20.4,35.6 -20.4,38.1 -10.05,38.1 -10.05,53.85Q-10.05,55.6 -10.7,57.2 -11.45,58.75 -12.55,59.9 -13.7,61 -15.2,61.7 -16.75,62.35 -18.5,62.35 -20.2,62.35 -21.8,61.7 -23.35,61 -24.5,59.85 -25.6,58.75 -26.3,57.2 -27,55.6 -27,53.85L-27,23.85Q-27,22.1 -26.3,20.6 -25.6,19.05 -24.5,17.95 -23.35,16.8 -21.8,16.1 -20.2,15.45 -18.5,15.45 -16.75,15.45 -15.2,16.1 -13.7,16.8 -12.55,17.95 -11.45,19.05 -10.7,20.6 -10.05,22.1 -10.05,23.85L-7.55,23.85Q-7.55,21.6 -8.4,19.6 -9.3,17.55 -10.75,16.05 M-119.55,23.85L-119.55,53.85Q-119.55,55.6 -120.2,57.2 -120.95,58.75 -122.05,59.85 -123.2,61 -124.7,61.7 -126.25,62.35 -128,62.35 -129.7,62.35 -131.3,61.7 -132.85,61 -134,59.85 -135.1,58.75 -135.8,57.2 -136.5,55.6 -136.5,53.85L-136.5,23.85Q-136.5,22.1 -135.8,20.6 -135.1,19.05 -134,17.95 -132.85,16.8 -131.3,16.1 -129.7,15.45 -128,15.45 -126.25,15.45 -124.7,16.1 -123.2,16.8 -122.05,17.95 -120.95,19.05 -120.2,20.6 -119.55,22.1 -119.55,23.85 M-151.85,23.85L-151.85,53.85Q-151.85,55.6 -152.5,57.2 -153.25,58.75 -154.35,59.85 -155.5,61 -157,61.7 -158.55,62.35 -160.3,62.35 -162,62.35 -163.6,61.7 -165.15,61 -166.3,59.85 -167.4,58.75 -168.1,57.2 -168.8,55.6 -168.8,53.85L-168.8,23.85Q-168.8,22.1 -168.1,20.6 -167.4,19.05 -166.3,17.95 -165.15,16.8 -163.6,16.1 -162,15.45 -160.3,15.45 -158.55,15.45 -157,16.1 -155.5,16.8 -154.35,17.95 -153.25,19.05 -152.5,20.6 -151.85,22.1 -151.85,23.85"/><path fill="#D55B43" d="M-72.45,13.15L-74.95,13.15 -74.95,64.5 -72.45,64.5 -72.45,13.15"/><path fill="#D55B43" d="M-58.45,13.15L-60.95,13.15 -60.95,64.5 -58.45,64.5 -58.45,20.15 -42.3,64.5 -39.8,64.5 -39.8,13.15 -42.3,13.15 -42.3,57.55 -58.45,13.15"/><path fill="#D55B43" d="M-83.35,13.15L-86.2,13.15 -98.3,36.45 -104.2,36.45 -104.2,13.15 -106.7,13.15 -106.7,64.5 -104.2,64.5 -104.2,39.05 -98.3,39.05 -85.05,64.5 -82.2,64.5 -96.1,37.75 -83.35,13.15"/><path fill="#D55B43" d="M-117.9,19.55Q-118.8,17.55 -120.25,16.05 -121.75,14.6 -123.7,13.7 -125.7,12.85 -128,12.85 -130.25,12.85 -132.3,13.7 -134.3,14.6 -135.75,16.05 -137.25,17.55 -138.1,19.55 -139,21.6 -139,23.85L-139,53.85Q-139,56.15 -138.1,58.2 -137.25,60.2 -135.75,61.65 -134.3,63.15 -132.3,64 -130.25,64.9 -128,64.9 -125.7,64.9 -123.7,64 -121.75,63.15 -120.25,61.65 -118.8,60.2 -117.9,58.2 -117.05,56.15 -117.05,53.85L-117.05,23.85Q-117.05,21.6 -117.9,19.55 M-119.55,23.85L-119.55,53.85Q-119.55,55.6 -120.2,57.2 -120.95,58.75 -122.05,59.85 -123.2,61 -124.7,61.7 -126.25,62.35 -128,62.35 -129.7,62.35 -131.3,61.7 -132.85,61 -134,59.85 -135.1,58.75 -135.8,57.2 -136.5,55.6 -136.5,53.85L-136.5,23.85Q-136.5,22.1 -135.8,20.6 -135.1,19.05 -134,17.95 -132.85,16.8 -131.3,16.1 -129.7,15.45 -128,15.45 -126.25,15.45 -124.7,16.1 -123.2,16.8 -122.05,17.95 -120.95,19.05 -120.2,20.6 -119.55,22.1 -119.55,23.85"/><path fill="#D55B43" d="M-156,13.7Q-158,12.85 -160.3,12.85 -162.55,12.85 -164.6,13.7 -166.6,14.6 -168.05,16.05 -169.55,17.55 -170.4,19.55 -171.3,21.6 -171.3,23.85L-171.3,53.85Q-171.3,56.15 -170.4,58.2 -169.55,60.2 -168.05,61.65 -166.6,63.15 -164.6,64 -162.55,64.9 -160.3,64.9 -158,64.9 -156,64 -154.05,63.15 -152.55,61.65 -151.1,60.2 -150.2,58.2 -149.35,56.15 -149.35,53.85L-149.35,23.85Q-149.35,21.6 -150.2,19.55 -151.1,17.55 -152.55,16.05 -154.05,14.6 -156,13.7 M-151.85,23.85L-151.85,53.85Q-151.85,55.6 -152.5,57.2 -153.25,58.75 -154.35,59.85 -155.5,61 -157,61.7 -158.55,62.35 -160.3,62.35 -162,62.35 -163.6,61.7 -165.15,61 -166.3,59.85 -167.4,58.75 -168.1,57.2 -168.8,55.6 -168.8,53.85L-168.8,23.85Q-168.8,22.1 -168.1,20.6 -167.4,19.05 -166.3,17.95 -165.15,16.8 -163.6,16.1 -162,15.45 -160.3,15.45 -158.55,15.45 -157,16.1 -155.5,16.8 -154.35,17.95 -153.25,19.05 -152.5,20.6 -151.85,22.1 -151.85,23.85"/><path fill="#D55B43" d="M-194.85,13.15L-197.35,13.15 -197.35,64.5 -178.55,64.5 -178.55,62 -194.85,62 -194.85,13.15"/><path fill="#D55B43" d="M-224.5,13.15L-227,13.15 -227,53.8Q-227,55.55 -227.65,57.1 -228.4,58.65 -229.5,59.75 -230.65,60.9 -232.15,61.65 -233.7,62.3 -235.45,62.3 -237.15,62.3 -238.75,61.65 -240.3,60.9 -241.45,59.75 -242.55,58.65 -243.25,57.1 -243.95,55.55 -243.95,53.8L-243.95,13.15 -246.45,13.15 -246.45,53.8Q-246.45,56.1 -245.55,58.1 -244.7,60.1 -243.2,61.6 -241.75,63.1 -239.75,63.95 -237.7,64.8 -235.45,64.8 -233.15,64.8 -231.15,63.95 -229.2,63.1 -227.7,61.6 -226.25,60.1 -225.35,58.1 -224.5,56.1 -224.5,53.8L-224.5,13.15"/><path fill="#D55B43" d="M-257.65,19.55Q-258.55,17.55 -260,16.05 -261.5,14.6 -263.45,13.7 -265.45,12.85 -267.75,12.85 -270,12.85 -272.05,13.7 -274.05,14.6 -275.5,16.05 -277,17.55 -277.85,19.55 -278.75,21.6 -278.75,23.85L-278.75,53.85Q-278.75,56.15 -277.85,58.2 -277,60.2 -275.5,61.65 -274.05,63.15 -272.05,64 -270,64.9 -267.75,64.9 -265.45,64.9 -263.45,64 -261.5,63.15 -260,61.65 -258.55,60.2 -257.65,58.2 -256.8,56.15 -256.8,53.85L-256.8,23.85Q-256.8,21.6 -257.65,19.55 M-259.95,20.6Q-259.3,22.1 -259.3,23.85L-259.3,53.85Q-259.3,55.6 -259.95,57.2 -260.7,58.75 -261.8,59.85 -262.95,61 -264.45,61.7 -266,62.35 -267.75,62.35 -269.45,62.35 -271.05,61.7 -272.6,61 -273.75,59.85 -274.85,58.75 -275.55,57.2 -276.25,55.6 -276.25,53.85L-276.25,23.85Q-276.25,22.1 -275.55,20.6 -274.85,19.05 -273.75,17.95 -272.6,16.8 -271.05,16.1 -269.45,15.45 -267.75,15.45 -266,15.45 -264.45,16.1 -262.95,16.8 -261.8,17.95 -260.7,19.05 -259.95,20.6"/><path fill="#D55B43" d="M-290.25,13.15L-298.9,35.2 -307.4,13.15 -310.1,13.15 -300.2,38.7 -300.1,38.9 -300.1,64.5 -297.6,64.5 -297.6,38.9 -297.5,38.7 -287.55,13.15 -290.25,13.15"/><path fill="#D55B43" d="M-334.2,13.15L-354.2,13.15 -354.2,64.5 -334.2,64.5 -334.2,62 -351.7,62 -351.7,37.6 -337.3,37.6 -337.3,35.1 -351.7,35.1 -351.7,15.75 -334.2,15.75 -334.2,13.15"/><path fill="#D55B43" d="M-365.8,19.75Q-366.65,17.8 -368.15,16.3 -369.6,14.85 -371.6,14 -373.6,13.15 -375.9,13.15L-385.2,13.15 -385.2,64.5 -382.7,64.5 -382.7,42.9 -376.45,42.9 -367.3,64.5 -364.55,64.5 -373.8,42.65Q-371.9,42.3 -370.3,41.35 -368.7,40.4 -367.5,38.95 -366.25,37.5 -365.55,35.75 -364.9,34 -364.9,32L-364.9,24.05Q-364.9,21.75 -365.8,19.75 M-375.9,15.7Q-374.2,15.7 -372.65,16.35 -371.15,17.05 -370,18.2 -368.85,19.35 -368.15,20.85 -367.5,22.35 -367.5,24.05L-367.5,32Q-367.5,33.75 -368.15,35.3 -368.85,36.8 -370,37.95 -371.15,39.05 -372.65,39.75 -374.2,40.35 -375.9,40.35L-382.7,40.35 -382.7,15.7 -375.9,15.7"/><path fill="#D55B43" d="M-395.85,64.5L-393.25,64.5 -404.65,13.15 -408.95,13.15 -420.3,64.5 -417.7,64.5 -414.15,48.4 -399.45,48.4 -395.85,64.5 M-406.8,15.2L-399.95,45.9 -413.65,45.9 -406.8,15.2"/></g><g transform="matrix(0.943 0 0 0.943 423.9 111.9)"><path fill="#D8E4B8" d="M128.6,10.35L128.6,42.45 130.25,42.45 130.25,10.35 137,10.35 137,8.65 121.85,8.65 121.85,10.35 128.6,10.35"/><path fill="#D8E4B8" d="M103.1,8.65L101.45,8.65 101.45,42.45 103.1,42.45 103.1,13.25 113.7,42.45 115.35,42.45 115.35,8.65 113.7,8.65 113.7,37.85 103.1,8.65"/><path fill="#D8E4B8" d="M93.95,10.35L93.95,8.65 80.8,8.65 80.8,42.45 93.95,42.45 93.95,40.8 82.45,40.8 82.45,24.75 91.9,24.75 91.9,23.1 82.45,23.1 82.45,10.35 93.95,10.35"/><path fill="#D8E4B8" d="M71.3,8.65L69.6,8.65 61.3,31.45 52.95,8.65 51.25,8.65 51.25,42.45 52.9,42.45 52.9,13.35 61.3,36.3 69.65,13.35 69.65,42.45 71.3,42.45 71.3,8.65"/><path fill="#D8E4B8" d="M42.2,13.05Q41.65,11.75 40.7,10.8 39.7,9.8 38.45,9.25 37.15,8.65 35.65,8.65L29.05,8.65 29.05,42.45 30.7,42.45 30.7,29.85 36,29.85Q37.4,29.75 38.65,29.15 39.85,28.55 40.8,27.6 41.7,26.65 42.25,25.4 42.75,24.15 42.75,22.7L42.75,15.8Q42.75,14.35 42.2,13.05 M41.1,15.8L41.1,22.7Q41.1,23.85 40.7,24.8 40.25,25.8 39.5,26.55 38.8,27.3 37.8,27.75 36.8,28.2 35.65,28.2L30.7,28.2 30.7,10.3 35.55,10.3Q36.7,10.3 37.7,10.75 38.7,11.2 39.45,11.95 40.2,12.7 40.65,13.7 41.1,14.7 41.1,15.8"/><path fill="#D8E4B8" d="M13.35,8.45Q11.85,8.45 10.5,9.05 9.2,9.6 8.2,10.55 7.25,11.55 6.7,12.85 6.1,14.2 6.1,15.7L6.1,35.45Q6.1,36.95 6.7,38.25 7.25,39.6 8.2,40.55 9.2,41.55 10.5,42.1 11.85,42.7 13.35,42.7 14.85,42.7 16.15,42.1 17.45,41.55 18.45,40.55 19.4,39.6 19.95,38.25 20.55,36.95 20.55,35.45L20.55,15.7Q20.55,14.2 19.95,12.85 19.4,11.55 18.45,10.55 17.45,9.6 16.15,9.05 14.85,8.45 13.35,8.45 M15.5,10.6Q16.5,11.05 17.25,11.8 18,12.55 18.45,13.55 18.9,14.55 18.9,15.7L18.9,35.45Q18.9,36.6 18.45,37.6 18,38.65 17.25,39.35 16.5,40.15 15.5,40.6 14.5,41.05 13.35,41.05 12.2,41.05 11.2,40.6 10.15,40.15 9.4,39.35 8.65,38.65 8.2,37.6 7.75,36.6 7.75,35.45L7.75,15.7Q7.75,14.55 8.2,13.55 8.65,12.55 9.4,11.8 10.15,11.05 11.2,10.6 12.2,10.15 13.35,10.15 14.5,10.15 15.5,10.6"/><path fill="#D8E4B8" d="M-11.1,8.65L-12.75,8.65 -12.75,42.45 -0.4,42.45 -0.4,40.8 -11.1,40.8 -11.1,8.65"/><path fill="#D8E4B8" d="M-20.25,10.35L-20.25,8.65 -33.4,8.65 -33.4,42.45 -20.25,42.45 -20.25,40.8 -31.75,40.8 -31.75,24.75 -22.3,24.75 -22.3,23.1 -31.75,23.1 -31.75,10.35 -20.25,10.35"/><path fill="#D8E4B8" d="M-56.05,8.65L-57.75,8.65 -50.45,42.45 -48.25,42.45 -40.9,8.65 -42.6,8.65 -49.35,39.7 -56.05,8.65"/><path fill="#D8E4B8" d="M-65.25,8.65L-78.4,8.65 -78.4,42.45 -65.25,42.45 -65.25,40.8 -76.75,40.8 -76.75,24.75 -67.3,24.75 -67.3,23.1 -76.75,23.1 -76.75,10.35 -65.25,10.35 -65.25,8.65"/><path fill="#D8E4B8" d="M-94.15,8.65L-101.05,8.65 -101.05,42.45 -94.15,42.45Q-92.65,42.45 -91.3,41.9 -90,41.35 -89,40.35 -88.05,39.4 -87.5,38.1 -86.9,36.8 -86.9,35.3L-86.9,15.8Q-86.9,14.3 -87.5,13 -88.05,11.7 -89,10.75 -90,9.75 -91.3,9.2 -92.65,8.65 -94.15,8.65 M-94.15,10.3Q-93,10.3 -92,10.75 -91,11.15 -90.25,11.9 -89.5,12.65 -89.05,13.65 -88.6,14.65 -88.6,15.8L-88.6,35.3Q-88.6,36.45 -89.05,37.45 -89.5,38.45 -90.25,39.2 -91,39.95 -92,40.35 -93,40.8 -94.15,40.8L-99.4,40.8 -99.4,10.3 -94.15,10.3"/><path fill="#D8E4B8" d="M-126.1,10.75Q-127.05,9.75 -128.35,9.2 -129.65,8.65 -131.15,8.65L-137.65,8.65 -137.65,42.45 -129.5,42.45Q-128,42.45 -126.7,41.9 -125.4,41.35 -124.4,40.35 -123.45,39.4 -122.9,38.1 -122.3,36.8 -122.3,35.3L-122.3,28.4Q-122.3,26.05 -123.65,24.2 -125,22.4 -127.1,21.6 -125.65,20.7 -124.8,19.15 -123.95,17.65 -123.95,15.8 -123.95,14.3 -124.55,13 -125.1,11.7 -126.1,10.75 M-127.25,11.9Q-126.5,12.65 -126.05,13.65 -125.6,14.65 -125.6,15.8 -125.6,16.9 -126.05,17.85 -126.45,18.85 -127.2,19.6 -127.9,20.35 -128.9,20.75 -129.85,21.2 -130.95,21.25L-136,21.25 -136,10.3 -131.15,10.3Q-130,10.3 -129,10.75 -128,11.15 -127.25,11.9 M-127.25,23.35Q-126.25,23.8 -125.5,24.55 -124.8,25.3 -124.35,26.3 -123.95,27.3 -123.95,28.4L-123.95,35.3Q-123.95,36.45 -124.4,37.45 -124.85,38.45 -125.6,39.2 -126.35,39.95 -127.35,40.35 -128.35,40.8 -129.5,40.8L-136,40.8 -136,22.9 -129.4,22.9Q-128.25,22.95 -127.25,23.35"/><path fill="#D8E4B8" d="M-145.15,8.65L-158.3,8.65 -158.3,42.45 -145.15,42.45 -145.15,40.8 -156.65,40.8 -156.65,24.75 -147.2,24.75 -147.2,23.1 -156.65,23.1 -156.65,10.35 -145.15,10.35 -145.15,8.65"/><path fill="#D8E4B8" d="M-179,8.65L-181.25,8.65 -185.95,40 -192.75,8.65 -194.45,8.65 -187.15,42.45 -184.65,42.45 -180.15,12.3 -175.6,42.45 -173.1,42.45 -165.8,8.65 -167.5,8.65 -174.3,40 -179,8.65"/></g><g transform="matrix(0.943 0 0 0.943 396.85 224.5)"><path fill="#D8E4B8" d="M135.5,8.65L133.85,8.65 133.85,37.85 123.25,8.65 121.6,8.65 121.6,42.45 123.25,42.45 123.25,13.25 133.85,42.45 135.5,42.45 135.5,8.65"/><path fill="#D8E4B8" d="M105.9,10.15Q107.05,10.15 108.05,10.6 109.05,11.05 109.8,11.8 110.55,12.55 111,13.55 111.45,14.55 111.45,15.7L113.1,15.7Q113.1,14.2 112.5,12.9 111.95,11.55 111,10.55 110,9.6 108.7,9.05 107.4,8.45 105.9,8.45 104.4,8.45 103.05,9.05 101.75,9.6 100.75,10.55 99.8,11.55 99.25,12.85 98.65,14.2 98.65,15.7L98.65,35.45Q98.65,36.95 99.25,38.25 99.8,39.6 100.75,40.55 101.75,41.55 103.05,42.1 104.4,42.7 105.9,42.7 107.3,42.7 108.6,42.2 109.85,41.65 110.85,40.75 111.8,39.85 112.4,38.6 113,37.4 113.1,36L113.1,23.4 104.65,23.4 104.65,25.05 111.45,25.05 111.45,35.45Q111.45,36.6 111,37.6 110.55,38.65 109.8,39.4 109.05,40.15 108.05,40.6 107.05,41.05 105.9,41.05 104.75,41.05 103.75,40.6 102.7,40.15 101.95,39.35 101.2,38.65 100.75,37.6 100.3,36.6 100.3,35.45L100.3,15.7Q100.3,14.55 100.75,13.55 101.2,12.55 101.95,11.8 102.7,11.05 103.75,10.6 104.75,10.15 105.9,10.15"/><path fill="#D8E4B8" d="M90.15,8.65L88.5,8.65 88.5,42.45 90.15,42.45 90.15,8.65"/><path fill="#D8E4B8" d="M77.9,10.55Q76.9,9.6 75.6,9.05 74.3,8.45 72.8,8.45 71.3,8.45 69.95,9.05 68.65,9.6 67.65,10.55 66.7,11.55 66.15,12.85 65.55,14.2 65.55,15.7 65.55,17.6 66.15,19.05 66.7,20.5 67.65,21.7 68.55,22.9 69.7,23.9 70.9,24.95 72.1,25.9 73.3,26.85 74.4,27.8 75.55,28.8 76.4,29.9 77.3,31 77.85,32.4 78.35,33.75 78.35,35.45 78.35,36.6 77.9,37.6 77.45,38.65 76.7,39.35 75.95,40.15 74.95,40.6 73.95,41.05 72.8,41.05 71.65,41.05 70.65,40.6 69.6,40.15 68.85,39.35 68.1,38.65 67.65,37.6 67.2,36.6 67.2,35.45L65.55,35.45Q65.55,36.95 66.15,38.25 66.7,39.6 67.65,40.55 68.65,41.55 69.95,42.1 71.3,42.7 72.8,42.7 74.3,42.7 75.6,42.1 76.9,41.55 77.9,40.55 78.85,39.6 79.4,38.25 80,36.95 80,35.45 80,33.45 79.4,31.9 78.8,30.3 77.85,29 76.85,27.75 75.65,26.7 74.4,25.6 73.15,24.6 72,23.7 70.9,22.75 69.85,21.85 69.05,20.8 68.2,19.75 67.7,18.5 67.2,17.3 67.2,15.7 67.2,14.55 67.65,13.55 68.1,12.55 68.85,11.8 69.6,11.05 70.65,10.6 71.65,10.15 72.8,10.15 73.95,10.15 74.95,10.6 75.95,11.05 76.7,11.8 77.45,12.55 77.9,13.55 78.35,14.55 78.35,15.7L80,15.7Q80,14.2 79.4,12.9 78.85,11.55 77.9,10.55"/><path fill="#D8E4B8" d="M58.3,8.65L45.15,8.65 45.15,42.45 58.3,42.45 58.3,40.8 46.8,40.8 46.8,24.75 56.25,24.75 56.25,23.1 46.8,23.1 46.8,10.35 58.3,10.35 58.3,8.65"/><path fill="#D8E4B8" d="M34.55,10.75Q33.55,9.75 32.25,9.2 30.9,8.65 29.4,8.65L22.5,8.65 22.5,42.45 29.4,42.45Q30.9,42.45 32.25,41.9 33.55,41.35 34.55,40.35 35.5,39.4 36.05,38.1 36.65,36.8 36.65,35.3L36.65,15.8Q36.65,14.3 36.05,13 35.5,11.7 34.55,10.75 M33.3,11.9Q34.05,12.65 34.5,13.65 34.95,14.65 34.95,15.8L34.95,35.3Q34.95,36.45 34.5,37.45 34.05,38.45 33.3,39.2 32.55,39.95 31.55,40.35 30.55,40.8 29.4,40.8L24.15,40.8 24.15,10.3 29.4,10.3Q30.55,10.3 31.55,10.75 32.55,11.15 33.3,11.9 M-105.85,10.75Q-104.85,11.2 -104.1,12 -103.35,12.7 -102.9,13.7 -102.45,14.7 -102.45,15.8L-102.45,21.05Q-102.45,22.2 -102.9,23.2 -103.35,24.2 -104.1,24.95 -104.85,25.7 -105.85,26.15 -106.85,26.55 -108,26.55L-112.45,26.55 -112.45,10.3 -108,10.3Q-106.85,10.3 -105.85,10.75"/><path fill="#D8E4B8" d="M1.25,15.7Q1.25,14.2 0.65,12.9 0.1,11.55 -0.85,10.55 -1.85,9.6 -3.15,9.05 -4.45,8.45 -5.95,8.45 -7.45,8.45 -8.8,9.05 -10.1,9.6 -11.1,10.55 -12.05,11.55 -12.6,12.85 -13.2,14.2 -13.2,15.7L-13.2,35.45Q-13.2,36.95 -12.6,38.25 -12.05,39.6 -11.1,40.55 -10.1,41.55 -8.8,42.1 -7.45,42.7 -5.95,42.7 -4.45,42.7 -3.15,42.1 -1.85,41.55 -0.85,40.55 0.1,39.6 0.65,38.25 1.25,36.95 1.25,35.45L-0.4,35.45Q-0.4,36.6 -0.85,37.6 -1.3,38.65 -2.05,39.35 -2.8,40.15 -3.8,40.6 -4.8,41.05 -5.95,41.05 -7.1,41.05 -8.1,40.6 -9.15,40.15 -9.9,39.35 -10.65,38.65 -11.1,37.6 -11.55,36.6 -11.55,35.45L-11.55,15.7Q-11.55,14.55 -11.1,13.55 -10.65,12.55 -9.9,11.8 -9.15,11.05 -8.1,10.6 -7.1,10.15 -5.95,10.15 -4.8,10.15 -3.8,10.6 -2.8,11.05 -2.05,11.8 -1.3,12.55 -0.85,13.55 -0.4,14.55 -0.4,15.7L1.25,15.7"/><path fill="#D8E4B8" d="M-31.85,8.65L-33.5,8.65 -33.5,23.1 -44.35,23.1 -44.35,8.65 -46,8.65 -46,42.45 -44.35,42.45 -44.35,24.75 -33.5,24.75 -33.5,42.45 -31.85,42.45 -31.85,8.65"/><path fill="#D8E4B8" d="M-21.7,8.65L-23.35,8.65 -23.35,42.45 -21.7,42.45 -21.7,8.65"/><path fill="#D8E4B8" d="M-56.55,10.8Q-57.55,9.8 -58.8,9.25 -60.1,8.65 -61.6,8.65L-68.2,8.65 -68.2,42.45 -66.55,42.45 -66.55,29.85 -61.25,29.85Q-59.85,29.75 -58.6,29.15 -57.4,28.55 -56.45,27.6 -55.55,26.65 -55,25.4 -54.5,24.15 -54.5,22.7L-54.5,15.8Q-54.5,14.35 -55.05,13.05 -55.6,11.75 -56.55,10.8 M-57.8,11.95Q-57.05,12.7 -56.6,13.7 -56.15,14.7 -56.15,15.8L-56.15,22.7Q-56.15,23.85 -56.55,24.8 -57,25.8 -57.75,26.55 -58.45,27.3 -59.45,27.75 -60.45,28.2 -61.6,28.2L-66.55,28.2 -66.55,10.3 -61.7,10.3Q-60.55,10.3 -59.55,10.75 -58.55,11.2 -57.8,11.95"/><path fill="#D8E4B8" d="M-79.25,31.85L-76.9,42.45 -75.2,42.45 -82.7,8.65 -85.5,8.65 -93,42.45 -91.3,42.45 -88.95,31.85 -79.25,31.85 M-84.1,10L-79.6,30.2 -88.6,30.2 -84.1,10"/><path fill="#D8E4B8" d="M-100.75,21.05L-100.75,15.8Q-100.75,14.3 -101.35,13 -101.9,11.7 -102.85,10.75 -103.85,9.75 -105.15,9.2 -106.5,8.65 -108,8.65L-114.1,8.65 -114.1,42.45 -112.45,42.45 -112.45,28.2 -108.35,28.2 -102.3,42.45 -100.5,42.45 -106.6,28.05Q-105.35,27.8 -104.3,27.2 -103.25,26.6 -102.45,25.65 -101.65,24.7 -101.2,23.55 -100.75,22.35 -100.75,21.05 M-105.85,10.75Q-104.85,11.2 -104.1,12 -103.35,12.7 -102.9,13.7 -102.45,14.7 -102.45,15.8L-102.45,21.05Q-102.45,22.2 -102.9,23.2 -103.35,24.2 -104.1,24.95 -104.85,25.7 -105.85,26.15 -106.85,26.55 -108,26.55L-112.45,26.55 -112.45,10.3 -108,10.3Q-106.85,10.3 -105.85,10.75"/><path fill="#D8E4B8" d="M-129.8,10.15Q-128.65,10.15 -127.65,10.6 -126.65,11.05 -125.9,11.8 -125.15,12.55 -124.7,13.55 -124.25,14.55 -124.25,15.7L-122.6,15.7Q-122.6,14.2 -123.2,12.9 -123.75,11.55 -124.7,10.55 -125.7,9.6 -127,9.05 -128.3,8.45 -129.8,8.45 -131.3,8.45 -132.65,9.05 -133.95,9.6 -134.95,10.55 -135.9,11.55 -136.45,12.85 -137.05,14.2 -137.05,15.7L-137.05,35.45Q-137.05,36.95 -136.45,38.25 -135.9,39.6 -134.95,40.55 -133.95,41.55 -132.65,42.1 -131.3,42.7 -129.8,42.7 -128.4,42.7 -127.1,42.2 -125.85,41.65 -124.85,40.75 -123.9,39.85 -123.3,38.6 -122.7,37.4 -122.6,36L-122.6,23.4 -131.05,23.4 -131.05,25.05 -124.25,25.05 -124.25,35.45Q-124.25,36.6 -124.7,37.6 -125.15,38.65 -125.9,39.4 -126.65,40.15 -127.65,40.6 -128.65,41.05 -129.8,41.05 -130.95,41.05 -131.95,40.6 -133,40.15 -133.75,39.35 -134.5,38.65 -134.95,37.6 -135.4,36.6 -135.4,35.45L-135.4,15.7Q-135.4,14.55 -134.95,13.55 -134.5,12.55 -133.75,11.8 -133,11.05 -131.95,10.6 -130.95,10.15 -129.8,10.15"/></g><g transform="matrix(0.943 0 0 0.943 418 168.2)"><path fill="#D8E4B8" d="M128.6,10.35L128.6,42.45 130.25,42.45 130.25,10.35 137,10.35 137,8.65 121.85,8.65 121.85,10.35 128.6,10.35"/><path fill="#D8E4B8" d="M103.1,8.65L101.45,8.65 101.45,42.45 103.1,42.45 103.1,13.25 113.7,42.45 115.35,42.45 115.35,8.65 113.7,8.65 113.7,37.85 103.1,8.65"/><path fill="#D8E4B8" d="M93.95,10.35L93.95,8.65 80.8,8.65 80.8,42.45 93.95,42.45 93.95,40.8 82.45,40.8 82.45,24.75 91.9,24.75 91.9,23.1 82.45,23.1 82.45,10.35 93.95,10.35"/><path fill="#D8E4B8" d="M71.3,8.65L69.6,8.65 61.3,31.45 52.95,8.65 51.25,8.65 51.25,42.45 52.9,42.45 52.9,13.35 61.3,36.3 69.65,13.35 69.65,42.45 71.3,42.45 71.3,8.65"/><path fill="#D8E4B8" d="M42.2,13.05Q41.65,11.75 40.7,10.8 39.7,9.8 38.45,9.25 37.15,8.65 35.65,8.65L29.05,8.65 29.05,42.45 30.7,42.45 30.7,29.85 36,29.85Q37.4,29.75 38.65,29.15 39.85,28.55 40.8,27.6 41.7,26.65 42.25,25.4 42.75,24.15 42.75,22.7L42.75,15.8Q42.75,14.35 42.2,13.05 M41.1,15.8L41.1,22.7Q41.1,23.85 40.7,24.8 40.25,25.8 39.5,26.55 38.8,27.3 37.8,27.75 36.8,28.2 35.65,28.2L30.7,28.2 30.7,10.3 35.55,10.3Q36.7,10.3 37.7,10.75 38.7,11.2 39.45,11.95 40.2,12.7 40.65,13.7 41.1,14.7 41.1,15.8"/><path fill="#D8E4B8" d="M13.35,8.45Q11.85,8.45 10.5,9.05 9.2,9.6 8.2,10.55 7.25,11.55 6.7,12.85 6.1,14.2 6.1,15.7L6.1,35.45Q6.1,36.95 6.7,38.25 7.25,39.6 8.2,40.55 9.2,41.55 10.5,42.1 11.85,42.7 13.35,42.7 14.85,42.7 16.15,42.1 17.45,41.55 18.45,40.55 19.4,39.6 19.95,38.25 20.55,36.95 20.55,35.45L20.55,15.7Q20.55,14.2 19.95,12.85 19.4,11.55 18.45,10.55 17.45,9.6 16.15,9.05 14.85,8.45 13.35,8.45 M15.5,10.6Q16.5,11.05 17.25,11.8 18,12.55 18.45,13.55 18.9,14.55 18.9,15.7L18.9,35.45Q18.9,36.6 18.45,37.6 18,38.65 17.25,39.35 16.5,40.15 15.5,40.6 14.5,41.05 13.35,41.05 12.2,41.05 11.2,40.6 10.15,40.15 9.4,39.35 8.65,38.65 8.2,37.6 7.75,36.6 7.75,35.45L7.75,15.7Q7.75,14.55 8.2,13.55 8.65,12.55 9.4,11.8 10.15,11.05 11.2,10.6 12.2,10.15 13.35,10.15 14.5,10.15 15.5,10.6"/><path fill="#D8E4B8" d="M-11.1,8.65L-12.75,8.65 -12.75,42.45 -0.4,42.45 -0.4,40.8 -11.1,40.8 -11.1,8.65"/><path fill="#D8E4B8" d="M-20.25,10.35L-20.25,8.65 -33.4,8.65 -33.4,42.45 -20.25,42.45 -20.25,40.8 -31.75,40.8 -31.75,24.75 -22.3,24.75 -22.3,23.1 -31.75,23.1 -31.75,10.35 -20.25,10.35"/><path fill="#D8E4B8" d="M-56.05,8.65L-57.75,8.65 -50.45,42.45 -48.25,42.45 -40.9,8.65 -42.6,8.65 -49.35,39.7 -56.05,8.65"/><path fill="#D8E4B8" d="M-65.25,8.65L-78.4,8.65 -78.4,42.45 -65.25,42.45 -65.25,40.8 -76.75,40.8 -76.75,24.75 -67.3,24.75 -67.3,23.1 -76.75,23.1 -76.75,10.35 -65.25,10.35 -65.25,8.65"/><path fill="#D8E4B8" d="M-94.15,8.65L-101.05,8.65 -101.05,42.45 -94.15,42.45Q-92.65,42.45 -91.3,41.9 -90,41.35 -89,40.35 -88.05,39.4 -87.5,38.1 -86.9,36.8 -86.9,35.3L-86.9,15.8Q-86.9,14.3 -87.5,13 -88.05,11.7 -89,10.75 -90,9.75 -91.3,9.2 -92.65,8.65 -94.15,8.65 M-94.15,10.3Q-93,10.3 -92,10.75 -91,11.15 -90.25,11.9 -89.5,12.65 -89.05,13.65 -88.6,14.65 -88.6,15.8L-88.6,35.3Q-88.6,36.45 -89.05,37.45 -89.5,38.45 -90.25,39.2 -91,39.95 -92,40.35 -93,40.8 -94.15,40.8L-99.4,40.8 -99.4,10.3 -94.15,10.3"/><path fill="#D8E4B8" d="M-126.6,9.25Q-127.9,8.65 -129.4,8.65L-136,8.65 -136,42.45 -134.35,42.45 -134.35,29.85 -129.05,29.85Q-127.65,29.75 -126.4,29.15 -125.2,28.55 -124.25,27.6 -123.35,26.65 -122.8,25.4 -122.3,24.15 -122.3,22.7L-122.3,15.8Q-122.3,14.35 -122.85,13.05 -123.4,11.75 -124.35,10.8 -125.35,9.8 -126.6,9.25 M-125.6,11.95Q-124.85,12.7 -124.4,13.7 -123.95,14.7 -123.95,15.8L-123.95,22.7Q-123.95,23.85 -124.35,24.8 -124.8,25.8 -125.55,26.55 -126.25,27.3 -127.25,27.75 -128.25,28.2 -129.4,28.2L-134.35,28.2 -134.35,10.3 -129.5,10.3Q-128.35,10.3 -127.35,10.75 -126.35,11.2 -125.6,11.95"/><path fill="#D8E4B8" d="M-146.55,10.8Q-147.55,9.8 -148.8,9.25 -150.1,8.65 -151.6,8.65L-158.2,8.65 -158.2,42.45 -156.55,42.45 -156.55,29.85 -151.25,29.85Q-149.85,29.75 -148.6,29.15 -147.4,28.55 -146.45,27.6 -145.55,26.65 -145,25.4 -144.5,24.15 -144.5,22.7L-144.5,15.8Q-144.5,14.35 -145.05,13.05 -145.6,11.75 -146.55,10.8 M-149.55,10.75Q-148.55,11.2 -147.8,11.95 -147.05,12.7 -146.6,13.7 -146.15,14.7 -146.15,15.8L-146.15,22.7Q-146.15,23.85 -146.55,24.8 -147,25.8 -147.75,26.55 -148.45,27.3 -149.45,27.75 -150.45,28.2 -151.6,28.2L-156.55,28.2 -156.55,10.3 -151.7,10.3Q-150.55,10.3 -149.55,10.75"/><path fill="#D8E4B8" d="M-172.7,8.65L-175.5,8.65 -183,42.45 -181.3,42.45 -178.95,31.85 -169.25,31.85 -166.9,42.45 -165.2,42.45 -172.7,8.65 M-178.6,30.2L-174.1,10 -169.6,30.2 -178.6,30.2"/></g><g transform="matrix(0.943 0 0 0.943 362.15 280.8)"><path fill="#D8E4B8" d="M124.35,11.8Q125.1,11.05 126.15,10.6 127.15,10.15 128.3,10.15 129.45,10.15 130.45,10.6 131.45,11.05 132.2,11.8 132.95,12.55 133.4,13.55 133.85,14.55 133.85,15.7L135.5,15.7Q135.5,14.2 134.9,12.9 134.35,11.55 133.4,10.55 132.4,9.6 131.1,9.05 129.8,8.45 128.3,8.45 126.8,8.45 125.45,9.05 124.15,9.6 123.15,10.55 122.2,11.55 121.65,12.85 121.05,14.2 121.05,15.7L121.05,35.45Q121.05,36.95 121.65,38.25 122.2,39.6 123.15,40.55 124.15,41.55 125.45,42.1 126.8,42.7 128.3,42.7 129.7,42.7 131,42.2 132.25,41.65 133.25,40.75 134.2,39.85 134.8,38.6 135.4,37.4 135.5,36L135.5,23.4 127.05,23.4 127.05,25.05 133.85,25.05 133.85,35.45Q133.85,36.6 133.4,37.6 132.95,38.65 132.2,39.4 131.45,40.15 130.45,40.6 129.45,41.05 128.3,41.05 127.15,41.05 126.15,40.6 125.1,40.15 124.35,39.35 123.6,38.65 123.15,37.6 122.7,36.6 122.7,35.45L122.7,15.7Q122.7,14.55 123.15,13.55 123.6,12.55 124.35,11.8"/><path fill="#D8E4B8" d="M112.55,8.65L110.9,8.65 110.9,37.85 100.3,8.65 98.65,8.65 98.65,42.45 100.3,42.45 100.3,13.25 110.9,42.45 112.55,42.45 112.55,8.65"/><path fill="#D8E4B8" d="M89.4,8.65L87.75,8.65 87.75,42.45 89.4,42.45 89.4,8.65"/><path fill="#D8E4B8" d="M80.75,8.65L65.6,8.65 65.6,10.35 72.35,10.35 72.35,42.45 74,42.45 74,10.35 80.75,10.35 80.75,8.65"/><path fill="#D8E4B8" d="M52.4,8.65L50.75,8.65 50.75,42.45 63.1,42.45 63.1,40.8 52.4,40.8 52.4,8.65"/><path fill="#D8E4B8" d="M42.25,8.65L40.6,8.65 40.6,35.4Q40.6,36.55 40.15,37.55 39.7,38.6 38.95,39.3 38.2,40.1 37.2,40.55 36.2,41 35.05,41 33.9,41 32.9,40.55 31.85,40.1 31.1,39.3 30.35,38.6 29.9,37.55 29.45,36.55 29.45,35.4L29.45,8.65 27.8,8.65 27.8,35.4Q27.8,36.9 28.4,38.25 28.95,39.55 29.9,40.5 30.9,41.5 32.2,42.05 33.55,42.65 35.05,42.65 36.55,42.65 37.85,42.05 39.15,41.5 40.15,40.5 41.1,39.55 41.65,38.25 42.25,36.9 42.25,35.4L42.25,8.65"/><path fill="#D8E4B8" d="M12.1,10.15Q13.25,10.15 14.25,10.6 15.25,11.05 16,11.8 16.75,12.55 17.2,13.55 17.65,14.55 17.65,15.7L19.3,15.7Q19.3,14.2 18.7,12.9 18.15,11.55 17.2,10.55 16.2,9.6 14.9,9.05 13.6,8.45 12.1,8.45 10.6,8.45 9.25,9.05 7.95,9.6 6.95,10.55 6,11.55 5.45,12.85 4.85,14.2 4.85,15.7 4.85,17.6 5.45,19.05 6,20.5 6.95,21.7 7.85,22.9 9,23.9 10.2,24.95 11.4,25.9 12.6,26.85 13.7,27.8 14.85,28.8 15.7,29.9 16.6,31 17.15,32.4 17.65,33.75 17.65,35.45 17.65,36.6 17.2,37.6 16.75,38.65 16,39.35 15.25,40.15 14.25,40.6 13.25,41.05 12.1,41.05 10.95,41.05 9.95,40.6 8.9,40.15 8.15,39.35 7.4,38.65 6.95,37.6 6.5,36.6 6.5,35.45L4.85,35.45Q4.85,36.95 5.45,38.25 6,39.6 6.95,40.55 7.95,41.55 9.25,42.1 10.6,42.7 12.1,42.7 13.6,42.7 14.9,42.1 16.2,41.55 17.2,40.55 18.15,39.6 18.7,38.25 19.3,36.95 19.3,35.45 19.3,33.45 18.7,31.9 18.1,30.3 17.15,29 16.15,27.75 14.95,26.7 13.7,25.6 12.45,24.6 11.3,23.7 10.2,22.75 9.15,21.85 8.35,20.8 7.5,19.75 7,18.5 6.5,17.3 6.5,15.7 6.5,14.55 6.95,13.55 7.4,12.55 8.15,11.8 8.9,11.05 9.95,10.6 10.95,10.15 12.1,10.15"/><path fill="#D8E4B8" d="M-15.9,8.65L-17.55,8.65 -17.55,42.45 -15.9,42.45 -15.9,13.25 -5.3,42.45 -3.65,42.45 -3.65,8.65 -5.3,8.65 -5.3,37.85 -15.9,8.65"/><path fill="#D8E4B8" d="M-33.25,8.45Q-34.75,8.45 -36.1,9.05 -37.4,9.6 -38.4,10.55 -39.35,11.55 -39.9,12.85 -40.5,14.2 -40.5,15.7L-40.5,35.45Q-40.5,36.95 -39.9,38.25 -39.35,39.6 -38.4,40.55 -37.4,41.55 -36.1,42.1 -34.75,42.7 -33.25,42.7 -31.75,42.7 -30.45,42.1 -29.15,41.55 -28.15,40.55 -27.2,39.6 -26.65,38.25 -26.05,36.95 -26.05,35.45L-26.05,15.7Q-26.05,14.2 -26.65,12.85 -27.2,11.55 -28.15,10.55 -29.15,9.6 -30.45,9.05 -31.75,8.45 -33.25,8.45 M-31.1,10.6Q-30.1,11.05 -29.35,11.8 -28.6,12.55 -28.15,13.55 -27.7,14.55 -27.7,15.7L-27.7,35.45Q-27.7,36.6 -28.15,37.6 -28.6,38.65 -29.35,39.35 -30.1,40.15 -31.1,40.6 -32.1,41.05 -33.25,41.05 -34.4,41.05 -35.4,40.6 -36.45,40.15 -37.2,39.35 -37.95,38.65 -38.4,37.6 -38.85,36.6 -38.85,35.45L-38.85,15.7Q-38.85,14.55 -38.4,13.55 -37.95,12.55 -37.2,11.8 -36.45,11.05 -35.4,10.6 -34.4,10.15 -33.25,10.15 -32.1,10.15 -31.1,10.6"/><path fill="#D8E4B8" d="M-60.15,11.8Q-59.4,11.05 -58.35,10.6 -57.35,10.15 -56.2,10.15 -55.05,10.15 -54.05,10.6 -53.05,11.05 -52.3,11.8 -51.55,12.55 -51.1,13.55 -50.65,14.55 -50.65,15.7L-49,15.7Q-49,14.2 -49.6,12.9 -50.15,11.55 -51.1,10.55 -52.1,9.6 -53.4,9.05 -54.7,8.45 -56.2,8.45 -57.7,8.45 -59.05,9.05 -60.35,9.6 -61.35,10.55 -62.3,11.55 -62.85,12.85 -63.45,14.2 -63.45,15.7L-63.45,35.45Q-63.45,36.95 -62.85,38.25 -62.3,39.6 -61.35,40.55 -60.35,41.55 -59.05,42.1 -57.7,42.7 -56.2,42.7 -54.7,42.7 -53.4,42.1 -52.1,41.55 -51.1,40.55 -50.15,39.6 -49.6,38.25 -49,36.95 -49,35.45L-50.65,35.45Q-50.65,36.6 -51.1,37.6 -51.55,38.65 -52.3,39.35 -53.05,40.15 -54.05,40.6 -55.05,41.05 -56.2,41.05 -57.35,41.05 -58.35,40.6 -59.4,40.15 -60.15,39.35 -60.9,38.65 -61.35,37.6 -61.8,36.6 -61.8,35.45L-61.8,15.7Q-61.8,14.55 -61.35,13.55 -60.9,12.55 -60.15,11.8"/></g><g transform="matrix(0.943 0 0 0.943 422.3 337.1)"><path fill="#D8E4B8" d="M124.35,11.8Q125.1,11.05 126.15,10.6 127.15,10.15 128.3,10.15 129.45,10.15 130.45,10.6 131.45,11.05 132.2,11.8 132.95,12.55 133.4,13.55 133.85,14.55 133.85,15.7L135.5,15.7Q135.5,14.2 134.9,12.9 134.35,11.55 133.4,10.55 132.4,9.6 131.1,9.05 129.8,8.45 128.3,8.45 126.8,8.45 125.45,9.05 124.15,9.6 123.15,10.55 122.2,11.55 121.65,12.85 121.05,14.2 121.05,15.7L121.05,35.45Q121.05,36.95 121.65,38.25 122.2,39.6 123.15,40.55 124.15,41.55 125.45,42.1 126.8,42.7 128.3,42.7 129.7,42.7 131,42.2 132.25,41.65 133.25,40.75 134.2,39.85 134.8,38.6 135.4,37.4 135.5,36L135.5,23.4 127.05,23.4 127.05,25.05 133.85,25.05 133.85,35.45Q133.85,36.6 133.4,37.6 132.95,38.65 132.2,39.4 131.45,40.15 130.45,40.6 129.45,41.05 128.3,41.05 127.15,41.05 126.15,40.6 125.1,40.15 124.35,39.35 123.6,38.65 123.15,37.6 122.7,36.6 122.7,35.45L122.7,15.7Q122.7,14.55 123.15,13.55 123.6,12.55 124.35,11.8"/><path fill="#D8E4B8" d="M112.55,8.65L110.9,8.65 110.9,37.85 100.3,8.65 98.65,8.65 98.65,42.45 100.3,42.45 100.3,13.25 110.9,42.45 112.55,42.45 112.55,8.65"/><path fill="#D8E4B8" d="M89.4,8.65L87.75,8.65 87.75,42.45 89.4,42.45 89.4,8.65"/><path fill="#D8E4B8" d="M80.75,8.65L65.6,8.65 65.6,10.35 72.35,10.35 72.35,42.45 74,42.45 74,10.35 80.75,10.35 80.75,8.65"/><path fill="#D8E4B8" d="M48.6,10.35L60.1,10.35 60.1,8.65 46.95,8.65 46.95,42.45 60.1,42.45 60.1,40.8 48.6,40.8 48.6,24.75 58.05,24.75 58.05,23.1 48.6,23.1 48.6,10.35"/><path fill="#D8E4B8" d="M37.85,8.65L29.85,24 26,24 26,8.65 24.35,8.65 24.35,42.45 26,42.45 26,25.7 29.85,25.7 38.6,42.45 40.45,42.45 31.3,24.85 39.7,8.65 37.85,8.65"/><path fill="#D8E4B8" d="M13.5,10.75Q12.5,9.75 11.2,9.2 9.85,8.65 8.35,8.65L2.25,8.65 2.25,42.45 3.9,42.45 3.9,28.2 8,28.2 14.05,42.45 15.85,42.45 9.75,28.05Q11,27.8 12.05,27.2 13.1,26.6 13.9,25.65 14.7,24.7 15.15,23.55 15.6,22.35 15.6,21.05L15.6,15.8Q15.6,14.3 15,13 14.45,11.7 13.5,10.75 M12.25,12Q13,12.7 13.45,13.7 13.9,14.7 13.9,15.8L13.9,21.05Q13.9,22.2 13.45,23.2 13,24.2 12.25,24.95 11.5,25.7 10.5,26.15 9.5,26.55 8.35,26.55L3.9,26.55 3.9,10.3 8.35,10.3Q9.5,10.3 10.5,10.75 11.5,11.2 12.25,12"/><path fill="#D8E4B8" d="M-12.25,8.65L-15.05,8.65 -22.55,42.45 -20.85,42.45 -18.5,31.85 -8.8,31.85 -6.45,42.45 -4.75,42.45 -12.25,8.65 M-18.15,30.2L-13.65,10 -9.15,30.2 -18.15,30.2"/><path fill="#D8E4B8" d="M-30.05,8.65L-31.75,8.65 -40.05,31.45 -48.4,8.65 -50.1,8.65 -50.1,42.45 -48.45,42.45 -48.45,13.35 -40.05,36.3 -31.7,13.35 -31.7,42.45 -30.05,42.45 -30.05,8.65"/><path fill="#D8E4B8" d="M-80.05,40.8L-80.05,8.65 -81.7,8.65 -81.7,42.45 -69.35,42.45 -69.35,40.8 -80.05,40.8"/><path fill="#D8E4B8" d="M-96.2,8.65L-99,8.65 -106.5,42.45 -104.8,42.45 -102.45,31.85 -92.75,31.85 -90.4,42.45 -88.7,42.45 -96.2,8.65 M-93.1,30.2L-102.1,30.2 -97.6,10 -93.1,30.2"/><path fill="#D8E4B8" d="M-112,10.35L-112,8.65 -127.15,8.65 -127.15,10.35 -120.4,10.35 -120.4,42.45 -118.75,42.45 -118.75,10.35 -112,10.35"/><path fill="#D8E4B8" d="M-133.65,8.65L-135.3,8.65 -135.3,42.45 -133.65,42.45 -133.65,8.65"/><path fill="#D8E4B8" d="M-151,10.15Q-149.85,10.15 -148.85,10.6 -147.85,11.05 -147.1,11.8 -146.35,12.55 -145.9,13.55 -145.45,14.55 -145.45,15.7L-143.8,15.7Q-143.8,14.2 -144.4,12.9 -144.95,11.55 -145.9,10.55 -146.9,9.6 -148.2,9.05 -149.5,8.45 -151,8.45 -152.5,8.45 -153.85,9.05 -155.15,9.6 -156.15,10.55 -157.1,11.55 -157.65,12.85 -158.25,14.2 -158.25,15.7L-158.25,35.45Q-158.25,36.95 -157.65,38.25 -157.1,39.6 -156.15,40.55 -155.15,41.55 -153.85,42.1 -152.5,42.7 -151,42.7 -149.6,42.7 -148.3,42.2 -147.05,41.65 -146.05,40.75 -145.1,39.85 -144.5,38.6 -143.9,37.4 -143.8,36L-143.8,23.4 -152.25,23.4 -152.25,25.05 -145.45,25.05 -145.45,35.45Q-145.45,36.6 -145.9,37.6 -146.35,38.65 -147.1,39.4 -147.85,40.15 -148.85,40.6 -149.85,41.05 -151,41.05 -152.15,41.05 -153.15,40.6 -154.2,40.15 -154.95,39.35 -155.7,38.65 -156.15,37.6 -156.6,36.6 -156.6,35.45L-156.6,15.7Q-156.6,14.55 -156.15,13.55 -155.7,12.55 -154.95,11.8 -154.2,11.05 -153.15,10.6 -152.15,10.15 -151,10.15"/><path fill="#D8E4B8" d="M-166.75,8.65L-168.4,8.65 -168.4,42.45 -166.75,42.45 -166.75,8.65"/><path fill="#D8E4B8" d="M-179,10.75Q-180,9.75 -181.3,9.2 -182.65,8.65 -184.15,8.65L-191.05,8.65 -191.05,42.45 -184.15,42.45Q-182.65,42.45 -181.3,41.9 -180,41.35 -179,40.35 -178.05,39.4 -177.5,38.1 -176.9,36.8 -176.9,35.3L-176.9,15.8Q-176.9,14.3 -177.5,13 -178.05,11.7 -179,10.75 M-180.25,11.9Q-179.5,12.65 -179.05,13.65 -178.6,14.65 -178.6,15.8L-178.6,35.3Q-178.6,36.45 -179.05,37.45 -179.5,38.45 -180.25,39.2 -181,39.95 -182,40.35 -183,40.8 -184.15,40.8L-189.4,40.8 -189.4,10.3 -184.15,10.3Q-183,10.3 -182,10.75 -181,11.15 -180.25,11.9"/></g></g><defs/></svg>