<?xml version="1.0" encoding="utf-8"?><svg xmlns:xlink="http://www.w3.org/1999/xlink" id="Scene_1" image-rendering="auto" baseProfile="basic" version="1.1" x="0px" y="0px" width="80" height="80" overflow="visible" xmlns="http://www.w3.org/2000/svg"><g><path fill="#D8E4B8" stroke="#D8E4B8" stroke-linecap="round" stroke-linejoin="round" d="M14.25,68.95L40.2,75.95 65.9,68.95 71.8,4.6 8.7,4.6 14.25,68.95"/><path fill="#D8E4B8" stroke="#D8E4B8" stroke-linecap="round" stroke-linejoin="round" d="M13.6,10.2L18.3,64.5 40.2,70.4 61.9,64.5 66.85,10.2 40.2,10.2 13.6,10.2"/><path fill="#FEFEFC" d="M59.35,25.3L59.85,17.8 40.2,17.8 40.2,25.3 59.35,25.3"/><path fill="#EEF3E0" d="M59.85,17.8L59.35,25.3 40.2,25.3 40.2,33.85 58.3,33.85 56.25,57.95 40.2,62.3 40.2,70.4 61.9,64.5 66.85,10.2 40.2,10.2 40.2,17.8 59.85,17.8"/><path fill="none" stroke="#D8E4B8" stroke-linecap="round" stroke-linejoin="round" d="M40.2,70.4L61.9,64.5 66.85,10.2 40.2,10.2"/><path fill="#E6EDD1" d="M40.2,17.8L20.45,17.8 22.65,41.5 40.2,41.5 40.2,33.85 29.65,33.85 28.95,25.3 40.2,25.3 40.2,17.8"/><path fill="#D8E4B8" d="M20.45,17.8L40.2,17.8 40.2,10.2 13.6,10.2 18.3,64.5 40.2,70.4 40.2,62.3 40.15,62.3 24,57.75 23.05,45.35 30.8,45.35 31.5,51.8 40.2,54.3 40.2,41.5 22.65,41.5 20.45,17.8"/><path fill="none" stroke="#D8E4B8" stroke-linecap="round" stroke-linejoin="round" d="M40.2,10.2L13.6,10.2 18.3,64.5 40.2,70.4"/><path fill="#D8E4B8" d="M40.2,33.85L40.2,25.3 28.95,25.3 29.65,33.85 40.2,33.85"/><path fill="#FEFEFC" d="M40.2,33.85L40.2,41.5 49.9,41.5 48.85,51.85 40.3,54.3 40.2,54.3 40.2,62.3 56.25,57.95 58.3,33.85 40.2,33.85"/><path fill="#E6EDD1" d="M30.8,45.35L23.05,45.35 24,57.75 40.15,62.3 40.2,62.3 40.2,54.3 31.5,51.8 30.8,45.35"/><path fill="#EEF3E0" d="M40.2,54.3L40.3,54.3 48.85,51.85 49.9,41.5 40.2,41.5 40.2,54.3"/></g><defs/></svg>