<?xml version="1.0" encoding="utf-8"?><svg xmlns:xlink="http://www.w3.org/1999/xlink" id="Scene_1" image-rendering="auto" baseProfile="basic" version="1.1" x="0px" y="0px" width="80" height="80" overflow="visible" xmlns="http://www.w3.org/2000/svg"><g><path fill="#E6EDD1" d="M6.75,28.425Q6.72,28.303 6.7,28.25 6.65,28.65 6.6,28.8 6.5,29 6.25,29.3 5.05,30.2 4.05,31.7 2.35,34.4 2.2,37.85 2,41.25 4.2,44.15 4.9,45.05 5.7,45.8 6.131,46.136 6.375,46.325L6.4,46.35Q6.682,45.785 6.85,43.7 6.848,43.669 6.85,43.625L6.85,43.525Q6.848,43.482 6.85,43.45 7.05,40.95 6.95,38.25 6.95,35.4 6.9,33.1 6.857,29.235 6.75,28.425"/><path fill="#D8E4B8" d="M6.9,28.75L6.75,28.425Q6.857,29.235 6.9,33.1 6.95,35.4 6.95,38.25 7.05,40.95 6.85,43.45 6.848,43.482 6.85,43.525L6.85,43.625Q6.848,43.669 6.85,43.7 6.9,45.85 7.55,46.15 7.593,46.121 7.65,46.1 7.915,45.9 8.3,45.6 9.15,44.8 9.8,43.75 10.75,42.35 11.15,40.75 11.6,38.7 11.25,36.45 10.55,33.5 8.95,31.4 8.55,30.85 7.9,30.15 7.35,29.65 7.3,29.5 7.1,29.25 6.9,28.75"/><path fill="#FEFEFC" d="M6.4,46.35L6.375,46.325Q6.523,46.691 6.6,47.25 6.7,48 6.7,48.7L7.25,48.85Q7.25,48.5 7.2,48.05 7.2,47.15 7.3,46.7 7.374,46.367 7.65,46.1 7.593,46.121 7.55,46.15 6.9,45.85 6.85,43.7 6.682,45.785 6.4,46.35"/><path fill="#FEFEFC" d="M48.7,39.8Q48.45,39.9 48.1,39.9 47.85,39.9 47.65,39.85 47.45,39.85 47.25,39.75 46.8,39.6 46.55,39.55 46.2,39.45 45.8,39.45L45.75,39.45Q45.3,39.45 44.7,39.65 44.1,39.85 43.8,40.1 43.4,40.35 43.2,40.8 42.95,41.25 42.95,41.75 42.95,43.35 44.35,43.8 44.4,43.85 44.4,43.9L44.4,43.95Q44.25,44.1 43.75,44.35 43.45,44.55 43.4,44.6 43.3,44.65 43.3,44.75L43.3,44.9Q43.4,45.1 43.55,45.3 43.8,45.55 44.2,45.75 44.25,45.75 44.25,45.8 44.25,45.85 44.2,45.85 43.3,46.5 42.95,46.85 42.8,47 42.75,47.25 42.7,47.4 42.7,47.5 42.7,47.85 42.85,48.2 43.05,48.6 43.4,48.85 43.8,49.15 44.25,49.25 44.7,49.4 45.3,49.4 46.25,49.4 47.1,49 48,48.55 48.5,47.9 49,47.25 49,46.5 49,46 48.7,45.65 48.45,45.25 48,45.05 47.7,45 47,44.9 46.65,44.85 45.85,44.8L45.45,44.8Q45.05,44.75 44.9,44.6 44.75,44.5 44.75,44.3 44.75,44.15 44.9,44 45,43.95 45.15,43.9L45.5,43.85Q46.4,43.8 47.05,43.25 47.5,42.95 47.7,42.6 47.95,42.1 47.95,41.35 47.95,41.25 47.95,41.05 47.9,40.85 47.9,40.75L47.85,40.7 47.85,40.65 47.95,40.6 48,40.65Q48.15,40.65 48.3,40.7L48.35,40.7Q48.5,40.7 48.7,40.6 48.85,40.55 48.95,40.4 49,40.3 49.05,40.1 49.1,39.95 49.1,39.8 49.1,39.6 49.05,39.55 48.85,39.7 48.7,39.8 M45.65,43.3Q44.9,43.3 44.5,42.7 44.15,42.15 44.15,41.4 44.15,40.75 44.5,40.4 44.8,40 45.3,40 46,40 46.4,40.5 46.8,40.95 46.8,41.8 46.8,42.2 46.65,42.5 46.55,42.85 46.35,43 46.25,43.15 46,43.25 45.8,43.3 45.65,43.3 M45.25,45.9Q45.85,45.9 46.35,46 46.85,46.05 47.15,46.15 47.5,46.3 47.7,46.55 47.9,46.8 47.9,47.2 47.9,47.8 47.45,48.2 46.9,48.65 45.95,48.65 44.9,48.65 44.3,48.15 44.1,47.95 43.95,47.7 43.85,47.5 43.85,47.2 43.85,46.9 44.05,46.6 44.25,46.35 44.65,46.05 44.9,45.9 45.25,45.9"/><path fill="#FEFEFC" d="M50.45,41.1Q50.1,41.75 50.1,42.55 50.1,43.9 50.8,44.8 51.6,45.8 53.2,45.8 53.65,45.8 54.2,45.6 54.65,45.45 55.05,45.25 55.7,44.8 56.1,44.1 56.45,43.4 56.45,42.45 56.45,41.15 55.6,40.3 54.8,39.45 53.5,39.45 52.95,39.45 52.45,39.6 51.9,39.75 51.45,40.05 50.75,40.5 50.45,41.1 M52.95,40.05Q53.9,40.05 54.5,40.85 55.1,41.65 55.1,42.95 55.1,43.65 54.95,44.1 54.8,44.6 54.5,44.8 54.1,45.15 53.55,45.15 52.6,45.15 52.05,44.3 51.45,43.5 51.45,42.15 51.45,40.75 52.2,40.25 52.35,40.15 52.55,40.1 52.75,40.05 52.95,40.05"/><path fill="#FEFEFC" d="M40.7,44.8L40.65,44.7Q40.6,44.2 40.6,42 40.6,40.8 40.2,40.2 39.9,39.8 39.55,39.6 39.15,39.4 38.65,39.4 38.2,39.4 37.65,39.65 37.1,39.9 36.6,40.35L36.55,40.4Q36.5,40.4 36.5,40.3 36.5,40.2 36.55,39.65 36.55,39.55 36.5,39.45L36.45,39.4Q36.15,39.55 35.4,39.7 34.7,39.9 34.35,39.95 34.1,40 34.05,40.15 34.05,40.35 34.3,40.4 34.8,40.55 35.1,40.75 35.2,40.8 35.2,40.95 35.2,41 35.2,41.15 35.25,42 35.25,42.9 35.2,43.95 35.2,44.5 35.2,44.75 35.1,44.85 35.05,45 34.85,45 34.6,45.1 34.3,45.1 34.25,45.15 34.25,45.4 34.25,45.65 34.3,45.7L34.9,45.7Q35.5,45.65 35.85,45.65 36.4,45.65 36.9,45.7 37.4,45.7 37.45,45.7 37.5,45.65 37.5,45.4 37.55,45.2 37.5,45.1 37.15,45.1 36.85,45.05 36.7,45 36.6,44.9 36.55,44.8 36.55,44.6 36.5,43.9 36.5,41.35 36.5,41 36.7,40.85 36.9,40.65 37.25,40.55 37.6,40.4 37.95,40.4 38.5,40.4 38.85,40.75 39.05,40.9 39.15,41.15 39.25,41.35 39.3,41.55 39.3,41.95 39.35,42.75L39.35,44.25Q39.35,44.65 39.3,44.8 39.25,44.95 39.1,45 38.95,45.05 38.45,45.1 38.4,45.2 38.4,45.4 38.4,45.65 38.45,45.7 38.65,45.7 39.1,45.7 39.6,45.65 40,45.65 40.45,45.65 41,45.7L41.55,45.7Q41.6,45.65 41.65,45.4 41.65,45.2 41.6,45.1 41.35,45.1 41.15,45.05 40.95,45 40.75,44.9 40.7,44.85 40.7,44.8"/><path fill="#FEFEFC" d="M18.7,39.45Q18.35,39.45 17.85,39.65 17.25,39.9 16.65,40.35 16.65,40.4 16.6,40.4 16.55,40.4 16.5,40.35L16.45,40.3Q16.45,40.15 16.5,39.8L16.5,39.65Q16.5,39.5 16.45,39.45 16.15,39.55 15.4,39.75 14.75,39.9 14.4,39.95 14.3,40 14.2,40.05 14.15,40.1 14.15,40.15 14.15,40.2 14.2,40.25 14.25,40.3 14.35,40.35 14.85,40.5 15.15,40.7 15.25,40.75 15.3,40.9 15.3,40.95 15.3,41.05L15.3,41.1Q15.3,42 15.3,42.9 15.3,43.95 15.25,44.5 15.25,44.75 15.15,44.85 15.1,45 14.9,45.05 14.65,45.1 14.3,45.15 14.25,45.2 14.25,45.35 14.25,45.45 14.25,45.55L14.3,45.65Q14.45,45.65 14.8,45.65 15.35,45.6 15.85,45.6 16.3,45.6 16.9,45.65 17.25,45.65 17.35,45.65 17.4,45.6 17.45,45.4 17.45,45.25 17.4,45.15L17.15,45.1Q16.95,45.1 16.85,45.05 16.65,45 16.55,44.9 16.5,44.8 16.5,44.65 16.45,44.15 16.45,41.95L16.45,41.15Q16.45,41.05 16.5,41 16.55,40.9 16.6,40.85 16.9,40.6 17.3,40.5 17.65,40.35 17.95,40.35 19.05,40.35 19.25,41.5 19.35,41.8 19.35,42.95 19.35,43.95 19.3,44.55 19.25,44.8 19.2,44.9 19.15,45 18.95,45.05 18.85,45.1 18.55,45.15L18.35,45.15Q18.35,45.2 18.3,45.25 18.3,45.3 18.3,45.4 18.3,45.5 18.3,45.6L18.35,45.65Q18.45,45.65 18.95,45.65 19.5,45.65 19.8,45.65 20.55,45.65 21.4,45.65L21.45,45.55Q21.45,45.45 21.45,45.3 21.45,45.2 21.45,45.15 21.25,45.15 21,45.05L20.8,45.05Q20.7,44.95 20.6,44.9 20.5,44.8 20.5,44.6 20.5,44.25 20.5,43L20.5,42.15Q20.5,41.7 20.5,41.5 20.5,41.25 20.45,41.05 20.45,41 20.45,40.95 20.45,40.9 20.5,40.9 20.85,40.65 21.25,40.5 21.6,40.4 21.85,40.4 22.45,40.4 22.85,40.75 23.15,41.1 23.25,41.55 23.3,41.85 23.3,43.1 23.25,43.8 23.25,44.5 23.25,44.75 23.2,44.85 23.1,45 22.9,45.05 22.7,45.1 22.4,45.15 22.35,45.2 22.4,45.4 22.4,45.6 22.4,45.65 23.05,45.6 24.05,45.6 24.5,45.6 25.1,45.65 25.35,45.65 25.45,45.65 25.45,45.6 25.5,45.4 25.55,45.25 25.5,45.15 25.2,45.1 25.05,45.1 24.85,45.05 24.75,44.95 24.6,44.95 24.55,44.8 24.5,44.7 24.5,44.65 24.5,44.4 24.5,43.45 24.5,42.15 24.5,41.9 24.5,40.75 23.95,40.1 23.45,39.45 22.5,39.45 22.1,39.45 21.55,39.7 21,39.95 20.4,40.4 20.4,40.45 20.35,40.45 20.3,40.45 20.25,40.4 19.95,39.9 19.55,39.65 19.2,39.45 18.7,39.45"/><path fill="#FEFEFC" d="M29.9,39.45Q29.35,39.45 28.85,39.6 28.3,39.75 27.85,40.05 27.15,40.5 26.85,41.1 26.5,41.75 26.5,42.55 26.5,43.9 27.2,44.8 28,45.8 29.6,45.8 30.05,45.8 30.6,45.6 31.05,45.45 31.45,45.25 32.1,44.8 32.45,44.1 32.85,43.4 32.85,42.45 32.85,41.15 32,40.3 31.2,39.45 29.9,39.45 M29.35,40.05Q30.3,40.05 30.9,40.85 31.5,41.65 31.5,42.95 31.5,43.65 31.35,44.1 31.2,44.6 30.9,44.85 30.5,45.15 29.95,45.15 29,45.15 28.4,44.3 27.85,43.5 27.85,42.15 27.85,40.75 28.6,40.25 28.75,40.15 28.95,40.1 29.15,40.05 29.35,40.05"/><path fill="#D8E4B8" d="M74.65,36.7Q73.95,36.3 72.85,36.3 72.35,36.3 71.5,36.3 70.65,36.3 70.15,36.3 69.5,36.3 69,36.3 68.65,36.25 68.55,36.25 68.5,36.3 68.4,36.55 68.3,36.8 68.35,36.85L68.8,36.9Q69.1,36.95 69.25,37 69.45,37.05 69.55,37.15 69.7,37.3 69.7,37.6 69.7,37.95 69.7,38.85 69.7,40.45 69.7,40.85 69.7,43.7 69.65,44.2 69.65,44.6 69.55,44.7 69.5,44.85 69.2,44.9 69.05,45 68.85,45 68.75,45 68.55,45.05 68.45,45.1 68.35,45.35 68.25,45.6 68.35,45.65 68.9,45.6 70.25,45.65 71.65,45.7 71.85,45.7 73.4,45.7 74.35,45.25 76.35,44.4 76.35,42.65 76.35,41.75 75.7,41.15 75.15,40.6 74.2,40.35L74.2,40.3Q74.85,40.05 75.2,39.55 75.6,39.05 75.6,38.45 75.6,37.25 74.65,36.7 M71.85,36.95Q72.9,36.95 73.5,37.4 74.1,37.85 74.1,38.75 74.1,39.2 73.95,39.55 73.75,39.95 73.4,40.1 73.05,40.25 72.3,40.25 71.6,40.25 71.2,40.25L71.15,40.2 71.15,40.15Q71.15,39.45 71.15,38.55 71.15,37.65 71.15,37.25 71.15,37.2 71.2,37.1 71.25,37 71.3,37 71.5,36.95 71.85,36.95 M72,40.95Q73.35,40.95 74.05,41.45 74.75,42 74.75,43 74.75,43.95 74.15,44.5 73.65,44.95 72.8,44.95 72.4,44.95 72.15,44.95 71.8,44.9 71.6,44.8 71.45,44.7 71.3,44.5 71.2,44.3 71.15,44.05 71.15,43.7 71.15,42.65 71.15,41.5 71.15,41 71.15,40.95 71.25,40.95 71.3,40.9 71.65,40.9 71.8,40.9 72,40.95"/><path fill="#D8E4B8" d="M57.65,36.55Q57.5,36.8 57.55,36.85 58.1,36.9 58.4,37 58.7,37.05 58.85,37.2 59,37.35 59,37.65 59.05,38 59.05,39.15 59.05,39.75 59.05,40.85 59.05,41.5 59.05,42.65 59.05,43.55 59,44.15 59,44.55 58.9,44.7 58.85,44.85 58.65,44.9 58.5,44.95 58.4,45 58.3,45 58,45.05 57.95,45.05 57.85,45.3 57.75,45.55 57.8,45.65 58,45.65 59.85,45.65 61.05,45.7 61.6,45.7 62.85,45.7 63.8,45.4 64.7,45.15 65.45,44.6 66.25,44 66.7,43.2 67.3,42.15 67.3,40.75 67.3,39.7 66.9,38.8 66.55,37.95 65.8,37.3 65.2,36.8 64.35,36.55 63.55,36.25 62.55,36.25 61.65,36.25 60.75,36.3 59.85,36.3 59.5,36.3 59.25,36.3 58.6,36.3 57.9,36.25 57.8,36.25 57.75,36.35 57.65,36.55 M60.6,37.15L60.65,37.05Q60.9,36.95 61.4,36.95 63,36.95 63.95,37.55 64.8,38.05 65.25,38.95 65.7,39.85 65.7,41 65.7,42.1 65.35,42.95 65.05,43.7 64.5,44.2 64,44.65 63.45,44.8 63,44.95 62.35,44.95 61.9,44.95 61.5,44.85 61.05,44.8 60.85,44.6 60.7,44.5 60.6,44.3 60.55,44.15 60.55,43.95 60.5,43.75 60.5,40.8 60.5,37.5 60.55,37.25 60.55,37.2 60.6,37.15"/></g><defs/></svg>