<?xml version="1.0" encoding="utf-8"?><svg xmlns:xlink="http://www.w3.org/1999/xlink" id="Scene_1" image-rendering="auto" baseProfile="basic" version="1.1" x="0px" y="0px" width="80" height="80" overflow="visible" xmlns="http://www.w3.org/2000/svg"><g><path fill="#D8E4B8" d="M70.3,9.2L9.2,9.2 9.2,70.3 70.3,70.3 70.3,9.2"/><g transform="matrix(1 0 0 1 17.5 11.4)"><path fill="#FEFEFC" d="M42.3,38.15Q42.3,35.7 40.85,34.05 39.4,32.4 36.35,31.35 34.25,30.6 33.3,29.95 32.4,29.25 32.45,28.25 32.45,27.2 33.25,26.55 34.05,25.9 35.55,25.85 37.05,25.9 38.3,26.3 39.55,26.7 40.3,27.15L41.45,23.2Q40.45,22.65 38.9,22.25 37.35,21.9 35.45,21.85 32.85,21.9 30.95,22.8 29.05,23.7 28.05,25.3 27,26.85 27,28.85 26.95,30.85 28.45,32.55 29.9,34.25 33.15,35.35 35.2,36.1 36.05,36.8 36.85,37.5 36.85,38.65 36.85,39.75 36,40.45 35.1,41.15 33.25,41.15 31.7,41.15 30.1,40.6 28.5,40.1 27.55,39.5L26.4,43.65Q27.65,44.35 29.4,44.75 31.15,45.2 33.2,45.2 37.65,45.15 40,43.2 42.3,41.3 42.3,38.15"/><path fill="#FEFEFC" d="M23.2,18.95Q22.4,17.2 21,16.05 19.55,14.8 17.25,14.2 15,13.55 11.9,13.55 9.05,13.55 6.95,13.7 4.8,13.9 3.25,14.2L3.25,44.75 8.85,44.75 8.85,33.05Q9.45,33.15 10.15,33.2 10.85,33.25 11.65,33.25 14.65,33.25 17.15,32.4 19.7,31.6 21.45,29.9 22.7,28.65 23.4,26.85 24.05,25.1 24.05,22.9 24.05,20.7 23.2,18.95 M10.15,18Q10.95,17.9 12.15,17.9 15.1,17.9 16.75,19.25 18.4,20.55 18.45,23.15 18.4,25.85 16.6,27.3 14.85,28.8 11.65,28.85 10.8,28.85 10.1,28.8 9.4,28.7 8.85,28.55L8.85,18.2Q9.3,18.05 10.15,18"/></g></g><defs/></svg>